<?xml version="1.0" encoding="utf-8"?>
<!-- Generator: Adobe Illustrator 16.0.0, SVG Export Plug-In . SVG Version: 6.00 Build 0)  -->
<!DOCTYPE svg PUBLIC "-//W3C//DTD SVG 1.1//EN" "http://www.w3.org/Graphics/SVG/1.1/DTD/svg11.dtd">
<svg version="1.1" id="Layer_1" xmlns="http://www.w3.org/2000/svg" xmlns:xlink="http://www.w3.org/1999/xlink" x="0px" y="0px"
	 width="165.081px" height="139.854px" viewBox="0 0 165.081 139.854" enable-background="new 0 0 165.081 139.854"
	 xml:space="preserve">
<g>
	<path fill="none" stroke="#FFFFFF" stroke-width="3.6208" stroke-miterlimit="10" d="M82.714,13.155
		c0,0,0.648-12.372,17.802-11.248l52.866-0.072c0,0,10.686,1.197,9.842,20.881v89.422c0,0,0.28,14.062-15.467,14.343H92.923
		c0,0-10.297,1.971-10.209,13.216c0,0-1.037-11.812-9.755-12.937H15.03c0,0-13.496-2.812-13.215-16.31L1.811,13.154
		c0,0,2.814-11.952,14.344-11.319l56.804-0.024C72.959,1.811,80.375,3.597,82.714,13.155z"/>
	
		<line fill="none" stroke="#FFFFFF" stroke-width="3.6208" stroke-miterlimit="10" x1="82.714" y1="13.155" x2="82.714" y2="139.696"/>
</g>
</svg>
