<?xml version="1.0" encoding="utf-8"?>
<!-- Generator: Adobe Illustrator 16.0.0, SVG Export Plug-In . SVG Version: 6.00 Build 0)  -->
<!DOCTYPE svg PUBLIC "-//W3C//DTD SVG 1.1//EN" "http://www.w3.org/Graphics/SVG/1.1/DTD/svg11.dtd">
<svg version="1.1" id="Layer_1" xmlns="http://www.w3.org/2000/svg" xmlns:xlink="http://www.w3.org/1999/xlink" x="0px" y="0px"
	 width="143.041px" height="142.822px" viewBox="0 0 143.041 142.822" enable-background="new 0 0 143.041 142.822"
	 xml:space="preserve">
<g>
	<polygon fill="none" stroke="#FFFFFF" stroke-width="4.5309" stroke-miterlimit="10" points="2.834,75.333 29.644,66.958 
		49.082,132.306 22.942,140.018 	"/>
	<path fill="none" stroke="#FFFFFF" stroke-width="4.5309" stroke-miterlimit="10" d="M40.034,66.958
		c0,0,26.002-23.797,31.099-35.861c0,0,2.612-18.434,0-23.124c0,0,5.766-9.051,14.814-4.358c0,0,11.06,8.375,4.693,41.22
		c0,0,5.363,6.032,20.442,5.697l17.092,0.673c0,0,21.45,5.362,8.379,25.47c0,0,4.358,8.044-6.032,16.419c0,0,0,12.74-8.378,14.749
		c0,0-1.678,9.717-13.072,9.048c0,0-41.764-6.167-52.948-2.347L40.034,66.958z"/>
</g>
</svg>
