<?xml version="1.0" encoding="utf-8"?>
<!-- Generator: Adobe Illustrator 16.0.0, SVG Export Plug-In . SVG Version: 6.00 Build 0)  -->
<!DOCTYPE svg PUBLIC "-//W3C//DTD SVG 1.1//EN" "http://www.w3.org/Graphics/SVG/1.1/DTD/svg11.dtd">
<svg version="1.1" id="Layer_1" xmlns="http://www.w3.org/2000/svg" xmlns:xlink="http://www.w3.org/1999/xlink" x="0px" y="0px"
	 width="105.373px" height="141.463px" viewBox="0 0 105.373 141.463" enable-background="new 0 0 105.373 141.463"
	 xml:space="preserve">
<g>
	<g>
		<path fill="#FFFFFF" d="M26.877,4.491l1.096,34.242c-4.389,2.708-9.242,8.752-6.842,19.084c0.064,0.278,0.159,0.549,0.281,0.807
			l4.742,10.013c0.021,0.044,0.042,0.088,0.064,0.131c0.049,0.093,4.898,9.437,9.848,18.703
			c7.117,13.327,9.734,17.928,11.283,19.674c1.61,2.289,5.371,5.486,11.166,5.486c2.225,0,4.575-0.468,7.013-1.394l25.778,20.273
			c-4.229,2.064-10.4,4.725-16.273,5.952h-7.462c-1.252-0.175-12.844-2.112-25.535-15.188c-0.021-0.022-0.043-0.044-0.065-0.065
			c-0.104-0.102-10.426-10.3-18.188-21.859c-0.021-0.031-0.043-0.062-0.064-0.093C20.177,95.29,16.06,88.966,15.55,87.43
			c-0.055-0.211-0.128-0.419-0.217-0.618c-0.084-0.189-8.41-19.049-9.322-35.044C6.007,51.691,6,51.615,5.992,51.539
			C4.845,41.54,3.799,29.573,4.018,26.835c0.163-0.421,0.256-0.871,0.27-1.332c0.002-0.046,0.227-4.783,3.426-9.759
			C11.582,9.728,18.017,5.953,26.877,4.491 M30.736,0C0.966,2.367,0.29,25.385,0.29,25.385c-1.202,1.052,1.729,26.61,1.729,26.61
			c0.966,16.949,9.662,36.444,9.662,36.444c0.702,2.811,8.782,14.14,8.782,14.14c8.078,12.031,18.704,22.481,18.704,22.481
			c14.49,14.93,27.928,16.402,28.19,16.402s8.08,0,8.08,0c11.152-2.218,23.185-9.288,23.185-9.288L66.128,106.62
			c-3.012,1.471-5.533,2.011-7.612,2.011c-5.74,0-8.107-4.118-8.107-4.118C49.091,104.16,29.77,66.925,29.77,66.925l-4.742-10.013
			c-2.897-12.471,7.026-15.72,7.026-15.72L30.736,0L30.736,0z"/>
	</g>
	<g>
		<path fill="#FFFFFF" d="M38.486,4.994c2.084,0.746,2.92,1.61,3.096,2.025l0.414,25.813c-0.997,1.208-1.898,1.998-2.609,2.507
			L38.486,4.994 M34.336,0l1.141,38.469c0,0-0.582,2.037,1.332,2.037c0.438,0,1.006-0.107,1.742-0.369c0,0,3.514-0.526,7.466-5.971
			L45.578,6.765C45.578,6.765,45.754,1.401,34.336,0L34.336,0z"/>
	</g>
	<g>
		<path fill="#FFFFFF" d="M78.903,102.877c0.489,0,1.245,0.387,1.624,0.677c0.046,0.04,0.037,0.03,0.101,0.08l20.108,15.582
			c0.456,0.463,0.692,0.896,0.629,1.163c-0.088,0.176-0.162,0.357-0.223,0.545l-0.767,2.35l-24.081-19.075l2.369-1.265
			C78.729,102.897,78.79,102.877,78.903,102.877 M78.903,98.877c-0.696,0-1.427,0.149-2.147,0.541l-7.729,4.126l33.371,26.434
			l2.547-7.814c0,0,1.668-2.898-1.581-5.971l-20.286-15.721C83.078,100.472,81.174,98.877,78.903,98.877L78.903,98.877z"/>
	</g>
</g>
</svg>
