<?xml version="1.0" encoding="utf-8"?>
<!-- Generator: Adobe Illustrator 16.0.0, SVG Export Plug-In . SVG Version: 6.00 Build 0)  -->
<!DOCTYPE svg PUBLIC "-//W3C//DTD SVG 1.1//EN" "http://www.w3.org/Graphics/SVG/1.1/DTD/svg11.dtd">
<svg version="1.1" id="Layer_1" xmlns="http://www.w3.org/2000/svg" xmlns:xlink="http://www.w3.org/1999/xlink" x="0px" y="0px"
	 width="169.559px" height="229.964px" viewBox="0 0 169.559 229.964" enable-background="new 0 0 169.559 229.964"
	 xml:space="preserve">
<g>
	
		<rect x="3.484" y="3.484" fill="none" stroke="#FFFFFF" stroke-width="6.9682" stroke-miterlimit="10" width="162.591" height="222.996"/>
	<g>
		<g>
			<path fill="#FFFFFF" d="M26.57,35.12c19.413,0,38.826,0,58.239,0c11.234,0,11.234-17.421,0-17.421c-19.413,0-38.826,0-58.239,0
				C15.336,17.699,15.336,35.12,26.57,35.12L26.57,35.12z"/>
		</g>
	</g>
	<g>
		<g>
			<path fill="#FFFFFF" d="M27.924,66.273c18.962,0,37.923,0,56.885,0c11.234,0,11.234-17.421,0-17.421c-18.962,0-37.923,0-56.885,0
				C16.69,48.852,16.69,66.273,27.924,66.273L27.924,66.273z"/>
		</g>
	</g>
	<g>
		<g>
			<path fill="#FFFFFF" d="M33.538,109.613c34.763,0,69.527,0,104.29,0c11.234,0,11.234-17.42,0-17.42c-34.763,0-69.527,0-104.29,0
				C22.304,92.193,22.304,109.613,33.538,109.613L33.538,109.613z"/>
		</g>
	</g>
	<g>
		<g>
			<path fill="#FFFFFF" d="M33.538,141.337c34.763,0,69.527,0,104.29,0c11.234,0,11.234-17.42,0-17.42c-34.763,0-69.527,0-104.29,0
				C22.304,123.917,22.304,141.337,33.538,141.337L33.538,141.337z"/>
		</g>
	</g>
	<g>
		<g>
			<path fill="#FFFFFF" d="M33.538,170.697c34.763,0,69.527,0,104.29,0c11.234,0,11.234-17.42,0-17.42c-34.763,0-69.527,0-104.29,0
				C22.304,153.277,22.304,170.697,33.538,170.697L33.538,170.697z"/>
		</g>
	</g>
	<g>
		<g>
			<path fill="#FFFFFF" d="M33.538,202.421c34.763,0,69.527,0,104.29,0c11.234,0,11.234-17.42,0-17.42c-34.763,0-69.527,0-104.29,0
				C22.304,185.001,22.304,202.421,33.538,202.421L33.538,202.421z"/>
		</g>
	</g>
</g>
</svg>
