<?xml version="1.0" encoding="utf-8"?>
<!-- Generator: Adobe Illustrator 16.0.0, SVG Export Plug-In . SVG Version: 6.00 Build 0)  -->
<!DOCTYPE svg PUBLIC "-//W3C//DTD SVG 1.1//EN" "http://www.w3.org/Graphics/SVG/1.1/DTD/svg11.dtd">
<svg version="1.1" id="Layer_1" xmlns="http://www.w3.org/2000/svg" xmlns:xlink="http://www.w3.org/1999/xlink" x="0px" y="0px"
	 width="118.317px" height="134.776px" viewBox="0 0 118.317 134.776" enable-background="new 0 0 118.317 134.776"
	 xml:space="preserve">
<g>
	<path fill-rule="evenodd" clip-rule="evenodd" fill="#C6C6C6" d="M92.255,14.761c-1.226,0-2.436,0.086-3.643,0.26
		C81.723,5.63,70.85,0,59.043,0C47.237,0,36.369,5.63,29.474,15.021c-1.205-0.174-2.417-0.26-3.642-0.26
		C11.59,14.761,0,26.35,0,40.592s11.59,25.832,25.832,25.832c3.156,0,6.245-0.577,9.157-1.691c6.68,5.823,15.175,9.071,24.054,9.071
		c8.889,0,17.375-3.248,24.054-9.071c2.912,1.114,6.001,1.691,9.158,1.691c14.242,0,25.832-11.59,25.832-25.832
		S106.497,14.761,92.255,14.761z M92.255,59.043c-3.95,0-7.591-1.269-10.595-3.383c-5.415,6.525-13.478,10.764-22.617,10.764
		c-9.139,0-17.2-4.238-22.616-10.764c-2.999,2.114-6.646,3.383-10.595,3.383c-10.192,0-18.451-8.26-18.451-18.451
		c0-10.19,8.259-18.45,18.451-18.45c2.492,0,4.856,0.51,7.019,1.402c4.897-9.553,14.728-16.163,26.192-16.163
		c11.464,0,21.296,6.61,26.187,16.163c2.168-0.893,4.537-1.402,7.025-1.402c10.191,0,18.451,8.26,18.451,18.45
		C110.706,50.783,102.446,59.043,92.255,59.043z"/>
	<g>
		<path fill="#1E8FE2" d="M17.827,97.032c2.268,0,4.541,0,6.81,0c0,1.081,0,2.154,0.007,3.236c1.428,0,2.868,0,4.303,0
			c0,1.133,0,2.267,0,3.4c1.072,0,2.139,0,3.213,0c0,1.403,0,2.814,0.007,4.219c1.163,0,2.329,0.008,3.499,0.008
			c0,2.267,0,4.534,0,6.802c-2.214,0-4.422,0-6.637,0c0,1.472,0,2.949,0,4.421c1.11,0,2.229,0,3.348-0.006
			c-0.006,1.104-0.006,2.206-0.006,3.31c1.462,0,2.935,0,4.413,0c-0.008,1.478-0.008,2.95,0,4.43c-1.479,0-2.951,0-4.422,0
			c0-1.472,0-2.943,0.009-4.408c-1.127-0.015-2.253-0.028-3.372-0.045c0.008-1.088,0.008-2.17,0.016-3.258c-1.435,0-2.86,0-4.288,0
			c0,1.015-0.006,2.035,0,3.049c1.277,0,2.554,0,3.837,0c0,1.471,0,2.943,0,4.414c-1.479,0-2.95,0-4.422,0c0-1.411,0-2.814,0-4.22
			c-1.937,0-3.874,0-5.811,0c-0.007,1.396-0.007,2.793,0,4.189c-1.478,0-2.95,0-4.422,0c0-1.479,0-2.957,0-4.437
			c1.246,0.007,2.5,0.007,3.753,0.007c-0.006-1.006-0.006-2.004,0-3.003c-1.402,0-2.799,0-4.195,0
			c-0.007,1.097-0.007,2.185-0.007,3.274c-1.119,0-2.238,0-3.35,0c-0.007,1.479-0.007,2.957,0,4.437c-1.479,0-2.949,0-4.422,0
			c0-1.472,0-2.952,0-4.43c1.464,0,2.936,0,4.407,0c0-1.104,0-2.2,0.008-3.304c1.11,0,2.222,0,3.342-0.006c0-1.472,0-2.943,0-4.415
			c-2.216,0-4.431,0-6.638,0c0-2.268,0-4.535,0-6.802c1.164,0,2.327-0.008,3.498-0.008c-0.008-1.404-0.008-2.815,0-4.219
			c1.066,0,2.147,0,3.221-0.008c0-1.135,0-2.26,0-3.393c1.436,0,2.867,0,4.31,0C17.827,99.187,17.827,98.105,17.827,97.032z
			 M13.436,106.792c0,1.538,0,3.07,0,4.608c1.471,0,2.951,0,4.429,0c0-1.538,0-3.077,0-4.608
			C16.387,106.792,14.906,106.792,13.436,106.792z M24.599,106.792c0,1.538,0,3.07,0,4.608c1.479,0,2.959,0,4.438,0
			c0-1.538,0-3.077,0-4.608C27.558,106.792,26.078,106.792,24.599,106.792z M17.857,118.871c2.252,0,4.496,0,6.749,0
			c0-1.389,0-2.786,0-4.174c-2.253,0-4.497,0-6.749,0C17.857,116.085,17.857,117.475,17.857,118.871z"/>
	</g>
	<g>
		<path fill="#1E8FE2" d="M51.814,80.724c0.791,0,2.367,0.01,3.15,0.01c0,0.729,0,2.189,0,2.92c0.989,0,1.977,0,2.974,0.008
			c-0.009,1.362,0,2.725,0,4.097c3.357,0,6.721,0,10.088,0c0-1.362,0-2.734,0-4.097c0.988-0.008,1.976-0.008,2.973-0.008
			c0-0.73-0.009-2.19-0.009-2.92c0.792,0,2.368-0.01,3.151-0.01c0.01,0.775,0.018,2.324,0.018,3.107
			c-0.997,0-1.993,0.01-2.982,0.018c0,1.309,0,2.608,0,3.918c1.015-0.009,2.039-0.018,3.054-0.018
			c0.01,1.059,0.018,2.127,0.027,3.186c1.361-0.008,2.733-0.008,4.104-0.017c-0.009-2.358-0.009-4.728-0.009-7.087
			c1.023,0,2.047,0,3.08,0c-0.01,4.416-0.01,8.822,0,13.239c-0.758,0-2.254,0-3,0c-0.011,1.309-0.011,2.616-0.011,3.935
			c-1.335,0-2.669,0-4.005,0c0,1.344,0,2.68,0,4.023c1.015,0,2.029,0,3.044,0.01c0,0.775,0.01,2.332,0.01,3.106
			c-0.792,0-2.369,0-3.152,0c0-0.739,0-2.198,0-2.929c-1.022-0.009-2.039-0.009-3.053-0.009c0-1.397,0-2.805,0-4.202
			c-5.521,0-11.048,0-16.577,0c0,1.397,0,2.805,0,4.202c-1.033,0-2.058,0-3.09,0c0,0.748,0,2.242,0,2.99c-0.783,0-2.359,0-3.151,0
			c0-0.773,0.009-2.313,0.009-3.089c1.023,0,2.048-0.009,3.08-0.009c0-1.362,0-2.733,0-4.095c-1.345,0-2.68,0-4.015,0
			c0-1.318,0-2.626,0-3.943c-0.748,0.009-2.244,0.009-2.991,0.009c0-4.408,0-8.823,0-13.239c1.023,0,2.047,0,3.071,0
			c0,2.369,0,4.735,0,7.104c1.38-0.008,2.76-0.017,4.141-0.025c-0.019-0.784-0.036-2.359-0.055-3.143
			c1.034-0.009,2.057-0.009,3.09-0.018c0-1.301,0-2.6,0.009-3.9c-0.998-0.008-1.994-0.018-2.982-0.018
			C51.814,83.057,51.814,81.499,51.814,80.724z M54.68,90.74c0,0.774,0,2.331,0,3.106c0.793,0,2.378,0,3.17,0
			c0-0.775,0-2.332,0-3.106C56.79,90.74,55.739,90.74,54.68,90.74z M68.114,90.74c0,0.774-0.009,2.331-0.009,3.106
			c0.793,0,2.377,0,3.17,0c0-0.775,0-2.332,0-3.106C70.216,90.74,69.165,90.74,68.114,90.74z"/>
	</g>
	<g>
		<path fill="#1E8FE2" d="M95.827,115.314c0-1.122,0-2.252,0.007-3.372c3.822,0,7.642,0,11.462,0c0,1.12,0,2.25,0.009,3.372
			c2.792,0,5.593,0,8.385,0c0,0.636,0,1.906,0,2.541c0.658,0,1.97,0,2.628,0c0,2.824,0,5.65,0,8.473c-2.816,0-5.632,0-8.441,0
			c-0.007,1.129,0,2.26,0,3.389c1.091,0,2.189,0,3.279,0c0,0.644,0,1.93,0,2.574c1.703,0,3.405,0,5.115,0.007c0,0.62,0,1.86,0,2.479
			c-1.701-0.007-3.404-0.007-5.106-0.007c0-0.58,0-1.75,0-2.338c-1.938,0-3.875,0-5.813,0c-0.007-1.185-0.007-2.377,0-3.562
			c-0.666,0-2.007-0.008-2.675-0.008c-0.007,1.121-0.007,2.252-0.007,3.372c-2.073,0-4.143,0-6.213,0c0-1.12,0-2.251,0-3.372
			c-0.896,0-1.79,0-2.684,0.008c0,1.185,0,2.377,0,3.562c-1.938,0-3.867,0-5.806,0c0,0.588-0.008,1.758-0.008,2.345
			c-1.703,0-3.404-0.007-5.099,0c-0.008-0.618-0.008-1.858-0.008-2.479c1.702-0.007,3.412-0.007,5.114-0.007
			c0-0.645,0-1.931,0-2.574c1.091,0,2.189,0,3.279,0c0-1.129,0-2.26,0-3.389c-2.816,0-5.625,0-8.441,0c0-2.822,0-5.648,0-8.473
			c0.871-0.008,1.75-0.008,2.628,0c0-0.635,0-1.905,0-2.541C90.233,115.314,93.026,115.314,95.827,115.314z M93.34,120.335
			c-0.007,0.895-0.007,1.781-0.007,2.676c1.701,0,3.412,0,5.123,0c0-0.895,0-1.789,0-2.676
			C96.745,120.335,95.042,120.335,93.34,120.335z M104.676,120.327c0,0.675-0.007,2.017-0.007,2.684c1.701,0,3.411,0,5.114,0.007
			c0.008-0.674,0.008-2.016,0.008-2.683C108.089,120.335,106.378,120.335,104.676,120.327z"/>
	</g>
</g>
</svg>
