<?xml version="1.0" encoding="utf-8"?>
<!-- Generator: Adobe Illustrator 16.0.0, SVG Export Plug-In . SVG Version: 6.00 Build 0)  -->
<!DOCTYPE svg PUBLIC "-//W3C//DTD SVG 1.1//EN" "http://www.w3.org/Graphics/SVG/1.1/DTD/svg11.dtd">
<svg version="1.1" id="Layer_1" xmlns="http://www.w3.org/2000/svg" xmlns:xlink="http://www.w3.org/1999/xlink" x="0px" y="0px"
	 width="117.35px" height="131.546px" viewBox="0 0 117.35 131.546" enable-background="new 0 0 117.35 131.546"
	 xml:space="preserve">
<g>
	<g>
		<g>
			<rect x="35.265" y="101.913" fill="#6DEEFC" width="8.314" height="8.314"/>
			<g>
				<rect x="25.44" y="101.913" fill="#6DEEFC" width="8.313" height="8.314"/>
				<rect x="25.44" y="112.034" fill="#6DEEFC" width="8.313" height="8.313"/>
				<rect x="35.265" y="112.034" fill="#6DEEFC" width="8.314" height="8.313"/>
			</g>
		</g>
		<g>
			<rect x="76.354" y="122.803" fill="#6DEEFC" width="8.743" height="8.743"/>
			<rect x="86.688" y="112.161" fill="#6DEEFC" width="8.744" height="8.741"/>
			<rect x="86.688" y="122.803" fill="#6DEEFC" width="8.744" height="8.743"/>
			<rect x="97.021" y="122.803" fill="#6DEEFC" width="8.744" height="8.743"/>
		</g>
		<g>
			<rect x="47.056" y="81.278" fill="#6DEEFC" width="9.564" height="9.564"/>
			<rect x="58.359" y="81.278" fill="#6DEEFC" width="9.563" height="9.564"/>
			<rect x="58.359" y="92.92" fill="#6DEEFC" width="9.563" height="9.562"/>
			<rect x="58.359" y="104.56" fill="#6DEEFC" width="9.563" height="9.563"/>
		</g>
		<path fill-rule="evenodd" clip-rule="evenodd" fill="#6DEEFC" d="M104.372,88.456l-2.218-0.589
			c-0.052-0.703-0.222-1.373-0.53-2.015l1.609-1.61c0.758-0.758,0.753-1.981,0-2.728c-0.75-0.753-1.967-0.757-2.725,0l-1.613,1.606
			c-0.633-0.298-1.311-0.47-2.012-0.528l-0.588-2.215c-0.275-1.022-1.332-1.64-2.364-1.363c-1.027,0.279-1.629,1.335-1.36,2.363
			l0.589,2.183c-0.29,0.199-0.567,0.421-0.827,0.675c-0.252,0.258-0.466,0.533-0.665,0.818l-2.183-0.59
			c-1.029-0.275-2.093,0.344-2.369,1.365c-0.274,1.032,0.346,2.083,1.362,2.364l2.203,0.591c0.062,0.693,0.237,1.372,0.546,2.013
			l-1.617,1.617c-0.75,0.754-0.746,1.969,0.008,2.72c0.75,0.75,1.966,0.757,2.715,0.007l1.622-1.621
			c0.634,0.313,1.315,0.49,2.02,0.543l0.58,2.207c0.284,1.028,1.332,1.641,2.364,1.364c1.024-0.274,1.646-1.33,1.369-2.37
			L99.7,93.081c0.274-0.197,0.558-0.415,0.817-0.667c0.253-0.255,0.467-0.539,0.666-0.821l2.186,0.588
			c1.03,0.276,2.089-0.34,2.36-1.361C106.007,89.795,105.398,88.74,104.372,88.456z M97.791,89.685c-0.758,0.757-1.978,0.752-2.73,0
			c-0.746-0.747-0.753-1.97,0-2.729c0.753-0.748,1.977-0.748,2.73,0C98.536,87.711,98.536,88.938,97.791,89.685z"/>
		<path fill-rule="evenodd" clip-rule="evenodd" fill="#6DEEFC" d="M23.864,80.391l-1.654,0.444
			c-0.153-0.209-0.314-0.421-0.509-0.619c-0.197-0.19-0.407-0.356-0.624-0.504l0.443-1.665c0.209-0.781-0.255-1.586-1.027-1.792
			c-0.783-0.208-1.586,0.257-1.794,1.034l-0.454,1.682c-0.532,0.044-1.04,0.174-1.524,0.404l-1.229-1.223
			c-0.574-0.575-1.498-0.573-2.066,0c-0.573,0.571-0.573,1.498,0,2.069l1.222,1.222c-0.229,0.489-0.363,1.003-0.403,1.53
			l-1.679,0.448c-0.783,0.215-1.249,1.009-1.039,1.795c0.212,0.776,1.014,1.236,1.798,1.034l1.654-0.451
			c0.147,0.224,0.315,0.434,0.514,0.628c0.192,0.189,0.401,0.362,0.618,0.504l-0.444,1.658c-0.208,0.784,0.257,1.592,1.034,1.801
			c0.784,0.209,1.58-0.256,1.79-1.036l0.451-1.672c0.532-0.044,1.046-0.18,1.534-0.41l1.226,1.225
			c0.568,0.575,1.491,0.563,2.067-0.005c0.565-0.566,0.574-1.493,0-2.064l-1.229-1.229c0.236-0.482,0.376-1.002,0.409-1.534
			l1.682-0.443c0.777-0.211,1.24-1.011,1.031-1.794C25.451,80.651,24.65,80.187,23.864,80.391z M19.631,84.357
			c-0.571,0.571-1.499,0.571-2.074,0c-0.565-0.571-0.565-1.502,0-2.067c0.575-0.569,1.503-0.569,2.074,0
			S20.196,83.786,19.631,84.357z"/>
	</g>
	<path fill-rule="evenodd" clip-rule="evenodd" fill="#C6C6C6" d="M117.35,40.34c0-14.154-11.518-25.671-25.671-25.671
		c-1.217,0-2.42,0.086-3.619,0.258C81.212,5.596,70.407,0,58.675,0S36.142,5.596,29.29,14.927c-1.199-0.172-2.402-0.258-3.619-0.258
		C11.518,14.669,0,26.186,0,40.34c0,14.151,11.518,25.669,25.671,25.669c3.137,0,6.207-0.573,9.102-1.681
		c6.636,5.788,15.077,9.016,23.902,9.016c8.834,0,17.267-3.228,23.902-9.016c2.895,1.107,5.965,1.681,9.102,1.681
		C105.832,66.009,117.35,54.491,117.35,40.34z M81.15,55.313c-5.382,6.483-13.393,10.695-22.476,10.695s-17.094-4.212-22.476-10.695
		c-2.979,2.101-6.604,3.361-10.528,3.361c-10.128,0-18.336-8.208-18.336-18.335c0-10.13,8.208-18.337,18.336-18.337
		c2.479,0,4.827,0.506,6.975,1.396c4.866-9.494,14.636-16.064,26.029-16.064s21.163,6.57,26.024,16.064
		c2.153-0.89,4.506-1.396,6.979-1.396c10.128,0,18.336,8.207,18.336,18.337c0,10.127-8.208,18.335-18.336,18.335
		C87.754,58.675,84.136,57.414,81.15,55.313z"/>
</g>
</svg>
