<?xml version="1.0" encoding="utf-8"?>
<!-- Generator: Adobe Illustrator 16.0.0, SVG Export Plug-In . SVG Version: 6.00 Build 0)  -->
<!DOCTYPE svg PUBLIC "-//W3C//DTD SVG 1.1//EN" "http://www.w3.org/Graphics/SVG/1.1/DTD/svg11.dtd">
<svg version="1.1" id="Layer_1" xmlns="http://www.w3.org/2000/svg" xmlns:xlink="http://www.w3.org/1999/xlink" x="0px" y="0px"
	 width="134.777px" height="134.776px" viewBox="0 0 134.777 134.776" enable-background="new 0 0 134.777 134.776"
	 xml:space="preserve">
<g>
	<g>
		<path fill="#FFCC00" d="M68.359,67.333l27.269-13.635c0,0-6.5-15.801-26.637-16.974c0,0-13.635,0.091-21.579,8.308
			c0,0-6.772,5.597-8.85,14.626c0,0-2.348,7.404,0,15.441c0,0,1.354,7.854,9.48,15.35c0,0,8.577,7.586,18.736,7.586
			c0,0,12.956,0.721,20.902-7.043c0,0,4.966-3.613,7.946-9.843L68.359,67.333z"/>
		<g id="Layer_2_1_">
			<circle cx="71.994" cy="49.132" r="2.479"/>
		</g>
	</g>
	<g>
		<path fill-rule="evenodd" clip-rule="evenodd" fill="#FFCC00" d="M67.389,0c-2.862,0-5.184,2.321-5.184,5.184v10.367
			c0,2.861,2.321,5.185,5.184,5.185s5.184-2.323,5.184-5.185V5.184C72.572,2.321,70.251,0,67.389,0z"/>
		<path fill-rule="evenodd" clip-rule="evenodd" fill="#FFCC00" d="M67.389,114.042c-2.862,0-5.184,2.321-5.184,5.184v10.367
			c0,2.862,2.321,5.184,5.184,5.184s5.184-2.321,5.184-5.184v-10.367C72.572,116.363,70.251,114.042,67.389,114.042z"/>
	</g>
	<g>
		<path fill-rule="evenodd" clip-rule="evenodd" fill="#FFCC00" d="M115.034,19.736c-2.024-2.026-5.305-2.026-7.33,0l-7.33,7.329
			c-2.024,2.025-2.024,5.306,0,7.33c2.025,2.025,5.306,2.025,7.33,0l7.33-7.33C117.06,25.041,117.06,21.761,115.034,19.736z"/>
		<path fill-rule="evenodd" clip-rule="evenodd" fill="#FFCC00" d="M34.403,100.381c-2.025-2.025-5.306-2.032-7.33,0l-7.33,7.329
			c-2.025,2.025-2.025,5.306,0,7.33c2.024,2.026,5.305,2.026,7.33,0l7.33-7.33C36.428,105.679,36.428,102.405,34.403,100.381z"/>
	</g>
	<g>
		<path fill-rule="evenodd" clip-rule="evenodd" fill="#FFCC00" d="M0,67.388c0,2.861,2.322,5.184,5.185,5.184h10.367
			c2.861,0,5.183-2.322,5.183-5.184s-2.321-5.183-5.183-5.183H5.185C2.322,62.205,0,64.526,0,67.388z"/>
		<path fill-rule="evenodd" clip-rule="evenodd" fill="#FFCC00" d="M114.043,67.388c0,2.861,2.321,5.184,5.183,5.184h10.368
			c2.861,0,5.184-2.322,5.184-5.184s-2.322-5.183-5.184-5.183h-10.368C116.364,62.205,114.043,64.526,114.043,67.388z"/>
	</g>
	<g>
		<path fill-rule="evenodd" clip-rule="evenodd" fill="#FFCC00" d="M19.736,19.736c-2.025,2.024-2.025,5.305,0,7.329l7.33,7.33
			c2.025,2.025,5.306,2.025,7.33,0c2.024-2.024,2.024-5.305,0-7.33l-7.33-7.329C25.042,17.71,21.761,17.71,19.736,19.736z"/>
		<path fill-rule="evenodd" clip-rule="evenodd" fill="#FFCC00" d="M100.381,100.374c-2.024,2.024-2.031,5.305,0,7.329l7.33,7.331
			c2.024,2.025,5.306,2.025,7.33,0c2.025-2.025,2.025-5.305,0-7.331l-7.33-7.329C105.68,98.349,102.405,98.349,100.381,100.374z"/>
	</g>
</g>
</svg>
