<?xml version="1.0" encoding="utf-8"?>
<!-- Generator: Adobe Illustrator 16.0.0, SVG Export Plug-In . SVG Version: 6.00 Build 0)  -->
<!DOCTYPE svg PUBLIC "-//W3C//DTD SVG 1.1//EN" "http://www.w3.org/Graphics/SVG/1.1/DTD/svg11.dtd">
<svg version="1.1" id="Layer_1" xmlns="http://www.w3.org/2000/svg" xmlns:xlink="http://www.w3.org/1999/xlink" x="0px" y="0px"
	 width="125.333px" height="107.09px" viewBox="0 0 125.333 107.09" enable-background="new 0 0 125.333 107.09"
	 xml:space="preserve">
<g>
	<g>
		<path fill="#C6C6C6" d="M95.089,27.648c-6.561,0-11.885,5.323-11.885,11.886c0,1.398,0.289,2.713,0.727,3.962H7.928
			c-2.187,0-3.962,1.774-3.962,3.961c0,2.188,1.775,3.962,3.962,3.962h87.161c6.562,0,11.887-5.323,11.887-11.885
			C106.976,32.972,101.651,27.648,95.089,27.648z"/>
		<path fill="#C6C6C6" d="M7.928,35.572h47.543c6.562,0,11.885-5.324,11.885-11.885c0-6.562-5.323-11.887-11.885-11.887
			c-6.562,0-11.887,5.324-11.887,11.887c0,1.396,0.289,2.713,0.729,3.961H7.928c-2.187,0-3.962,1.774-3.962,3.962
			C3.966,33.797,5.741,35.572,7.928,35.572z"/>
		<path fill="#C6C6C6" d="M71.317,59.344c-0.232,0-0.453,0.052-0.691,0.071c-0.153-0.009-0.282-0.071-0.438-0.071H9.063
			c-2.818,0-5.098,1.774-5.098,3.962s2.279,3.962,5.098,3.962h51.096c-0.438,1.248-0.727,2.568-0.727,3.962
			c0,6.562,5.323,11.886,11.885,11.886c6.562,0,11.887-5.324,11.887-11.886S77.88,59.344,71.317,59.344z"/>
	</g>
	<g>
		<polygon fill-rule="evenodd" clip-rule="evenodd" fill="#FF7567" points="54.575,22.466 52.934,22.466 52.934,20.866 
			48.159,20.866 48.159,19.269 46.538,19.269 46.538,25.679 54.575,25.679 		"/>
		<polygon fill-rule="evenodd" clip-rule="evenodd" fill="#C106B5" points="44.914,27.259 44.914,25.679 46.538,25.679 
			46.538,19.269 46.538,16.07 44.914,16.07 44.914,17.649 44.914,22.474 43.308,22.474 43.308,24.072 41.676,24.072 41.676,22.474 
			40.07,22.474 40.07,15.968 41.649,15.968 41.649,14.386 38.488,14.386 38.488,16.043 36.884,16.043 36.884,17.649 35.304,17.649 
			35.304,19.269 33.697,19.269 33.697,25.679 35.253,25.679 35.253,28.814 36.909,28.814 36.909,27.271 		"/>
		<rect x="43.349" y="17.649" fill-rule="evenodd" clip-rule="evenodd" fill="#0F0BA1" width="1.565" height="3.166"/>
		<rect x="43.349" y="14.441" fill-rule="evenodd" clip-rule="evenodd" fill="#C106B5" width="1.565" height="1.59"/>
		<polygon fill-rule="evenodd" clip-rule="evenodd" fill="#FFFFFF" points="43.349,14.441 41.649,14.441 41.649,15.968 
			40.07,15.968 40.07,22.474 41.676,22.474 41.676,24.072 43.308,24.072 43.308,22.474 44.914,22.474 44.914,20.815 43.349,20.815 
			43.349,17.649 44.914,17.649 44.914,16.031 43.334,16.031 		"/>
		<polygon fill-rule="evenodd" clip-rule="evenodd" fill="#FFFFFF" points="33.697,20.815 32.117,20.815 32.117,27.299 
			33.697,27.299 33.697,28.917 35.274,28.917 35.274,25.679 33.697,25.679 		"/>
		<path fill-rule="evenodd" clip-rule="evenodd" fill="#0F0AA2" d="M30.496,20.815v1.658h-3.22v-3.241h1.609v-6.415h1.61V9.66h1.558
			c0,0-0.02-3.262,0-3.262c0.021,0,1.644,0,1.644,0V0h-3.21v1.558h-1.591v1.62h-1.62V1.641h-1.6v1.496h-1.621v1.621h-1.62v1.641
			h-1.58v1.62h1.539V6.502h1.642V4.964h1.641v1.372h1.6V4.84h1.578V3.304h1.621v3.053h-1.579v4.881h-1.62v6.419h-1.641v6.416h-1.538
			v4.742h3.179v1.661h6.42v-3.177h-1.579v-6.483H30.496z"/>
		<path fill-rule="evenodd" clip-rule="evenodd" fill="#FFFFFF" d="M30.491,30.476v1.594h-1.627v1.582h-1.588v1.671h-3.202v1.56
			h-3.219v1.671h-3.177v1.493h-3.23v-1.515H9.591v-1.583H7.987v-1.688H6.406v-3.191H4.757v-1.594H3.153v-1.569h1.604v1.336h1.672
			v1.672h3.162v1.806h4.837v-1.605h1.603c0,0-0.044-16.086,0-16.086c0.045,0,1.604,0,1.604,0v-4.812h1.582V6.38h1.639v1.639h1.539
			V6.502h1.642V4.964h1.641v1.372h1.6V4.84h1.578V3.304h1.621v3.053h-1.579v4.881h-1.62v6.419h-1.641v6.416h-1.538v4.742h3.179
			v1.661H30.491z"/>
		<rect x="17.637" y="8.015" fill-rule="evenodd" clip-rule="evenodd" fill="#0F0BA1" width="1.58" height="3.201"/>
		<polygon fill-rule="evenodd" clip-rule="evenodd" fill="#FF7567" points="14.448,38.531 12.8,38.531 12.8,40.046 7.991,40.046 
			7.991,44.93 9.599,44.93 9.599,46.551 11.22,46.551 11.22,44.943 12.8,44.943 12.8,43.35 14.448,43.35 14.448,41.729 
			16.028,41.729 16.028,40.149 14.462,40.149 		"/>
		<rect y="25.681" fill-rule="evenodd" clip-rule="evenodd" fill="#0F0AA2" width="1.552" height="1.647"/>
		<polygon fill-rule="evenodd" clip-rule="evenodd" fill="#0F0AA2" points="1.552,28.9 1.552,27.328 3.153,27.328 3.153,25.681 
			7.927,25.681 7.927,24.082 12.773,24.082 12.773,22.458 16.011,22.458 16.011,32.114 14.428,32.114 14.428,33.72 9.591,33.72 
			9.591,31.914 6.429,31.914 6.429,30.242 4.757,30.242 4.757,28.906 		"/>
	</g>
	<g>
		<polygon fill-rule="evenodd" clip-rule="evenodd" fill="#FF7567" points="125.333,76.531 123.249,76.531 123.249,74.503 
			117.191,74.503 117.191,72.475 115.136,72.475 115.136,80.606 125.333,80.606 		"/>
		<polygon fill-rule="evenodd" clip-rule="evenodd" fill="#005012" points="113.074,82.612 113.074,80.606 115.136,80.606 
			115.136,72.475 115.136,68.415 113.074,68.415 113.074,70.421 113.074,76.541 111.036,76.541 111.036,78.57 108.968,78.57 
			108.968,76.541 106.93,76.541 106.93,68.286 108.934,68.286 108.934,66.281 104.924,66.281 104.924,68.383 102.887,68.383 
			102.887,70.421 100.881,70.421 100.881,72.475 98.844,72.475 98.844,80.606 100.817,80.606 100.817,84.585 102.92,84.585 
			102.92,82.626 		"/>
		<rect x="111.09" y="70.421" fill-rule="evenodd" clip-rule="evenodd" width="1.984" height="4.015"/>
		<rect x="111.09" y="66.351" fill-rule="evenodd" clip-rule="evenodd" fill="#005012" width="1.984" height="2.016"/>
		<polygon fill-rule="evenodd" clip-rule="evenodd" fill="#FFFFFF" points="111.09,66.351 108.934,66.351 108.934,68.286 
			106.93,68.286 106.93,76.541 108.968,76.541 108.968,78.57 111.036,78.57 111.036,76.541 113.074,76.541 113.074,74.436 
			111.09,74.436 111.09,70.421 113.074,70.421 113.074,68.366 111.071,68.366 		"/>
		<polygon fill-rule="evenodd" clip-rule="evenodd" fill="#FFFFFF" points="98.844,74.436 96.838,74.436 96.838,82.661 
			98.844,82.661 98.844,84.717 100.845,84.717 100.845,80.606 98.844,80.606 		"/>
		<path fill-rule="evenodd" clip-rule="evenodd" d="M94.784,74.436v2.105h-4.087v-4.112h2.043V64.29h2.044v-4.006h1.974
			c0,0-0.025-4.138,0-4.138c0.028,0,2.086,0,2.086,0v-8.119h-4.072v1.978h-2.02v2.055h-2.055v-1.95h-2.029v1.898H86.61v2.055h-2.055
			v2.084h-2.003v2.055h1.95v-1.924h2.082v-1.95h2.083v1.739h2.03v-1.897h2.003v-1.951h2.053v3.875h-2.002v6.19h-2.054v8.146h-2.083
			v8.141h-1.951v6.015h4.034v2.106h8.143v-4.03h-2.003v-8.226H94.784z"/>
		<path fill-rule="evenodd" clip-rule="evenodd" fill="#FFFFFF" d="M94.775,86.691v2.025h-2.062v2.006h-2.015v2.12h-4.064v1.979
			h-4.081v2.121h-4.032v1.894h-4.099v-1.923h-6.163v-2.007h-2.035v-2.144h-2.006v-4.047h-2.092v-2.025h-2.034v-1.987h2.034v1.693
			h2.118v2.122h4.015v2.289h6.135v-2.036h2.035c0,0-0.057-20.409,0-20.409s2.035,0,2.035,0v-6.105h2.008v-6.136h2.081v2.079h1.95
			v-1.924h2.082v-1.95h2.083v1.739h2.03v-1.897h2.003v-1.951h2.053v3.875h-2.002v6.19h-2.054v8.146h-2.083v8.141h-1.951v6.015h4.034
			v2.106H94.775z"/>
		<rect x="78.467" y="58.197" fill-rule="evenodd" clip-rule="evenodd" width="2.005" height="4.061"/>
		<polygon fill-rule="evenodd" clip-rule="evenodd" fill="#FF7567" points="74.422,96.914 72.329,96.914 72.329,98.837 
			66.23,98.837 66.23,105.032 68.27,105.032 68.27,107.09 70.325,107.09 70.325,105.05 72.329,105.05 72.329,103.027 
			74.422,103.027 74.422,100.972 76.425,100.972 76.425,98.967 74.438,98.967 		"/>
		<rect x="56.09" y="80.61" fill-rule="evenodd" clip-rule="evenodd" width="1.971" height="2.091"/>
		<polygon fill-rule="evenodd" clip-rule="evenodd" points="58.061,84.695 58.061,82.701 60.092,82.701 60.092,80.61 66.146,80.61 
			66.146,78.582 72.296,78.582 72.296,76.521 76.405,76.521 76.405,88.772 74.394,88.772 74.394,90.809 68.259,90.809 68.259,88.52 
			64.244,88.52 64.244,86.397 62.126,86.397 62.126,84.704 		"/>
	</g>
</g>
</svg>
