<?xml version="1.0" encoding="utf-8"?>
<!-- Generator: Adobe Illustrator 16.0.0, SVG Export Plug-In . SVG Version: 6.00 Build 0)  -->
<!DOCTYPE svg PUBLIC "-//W3C//DTD SVG 1.1//EN" "http://www.w3.org/Graphics/SVG/1.1/DTD/svg11.dtd">
<svg version="1.1" xmlns="http://www.w3.org/2000/svg" xmlns:xlink="http://www.w3.org/1999/xlink" x="0px" y="0px"
	 width="240.777px" height="240.775px" viewBox="0 0 240.777 240.775" enable-background="new 0 0 240.777 240.775"
	 xml:space="preserve">
<g id="Layer_2">
	<g>
		<path fill="#FFCC00" d="M120.387-1c-5.113,0-9.26,4.147-9.26,9.261v18.521c0,5.112,4.146,9.262,9.26,9.262
			c5.115,0,9.26-4.149,9.26-9.262V8.261C129.647,3.148,125.503-1,120.387-1z"/>
		<path fill="#FFCC00" d="M120.387,202.735c-5.113,0-9.26,4.146-9.26,9.261v18.521c0,5.112,4.146,9.261,9.26,9.261
			c5.115,0,9.26-4.147,9.26-9.261v-18.521C129.647,206.881,125.503,202.735,120.387,202.735z"/>
	</g>
	<g>
		<path fill="#FFCC00" d="M205.507,34.258c-3.618-3.619-9.478-3.619-13.096,0l-13.095,13.095c-3.619,3.618-3.619,9.479,0,13.095
			c3.618,3.618,9.478,3.618,13.095,0l13.096-13.095C209.125,43.736,209.125,37.875,205.507,34.258z"/>
		<path fill="#FFCC00" d="M61.461,178.329c-3.618-3.618-9.479-3.631-13.096,0L35.27,191.423c-3.619,3.618-3.619,9.479,0,13.096
			c3.616,3.62,9.478,3.62,13.095,0l13.096-13.096C65.076,187.793,65.076,181.946,61.461,178.329z"/>
	</g>
	<g>
		<path fill="#FFCC00" d="M0,119.388c0,5.111,4.148,9.26,9.262,9.26h18.521c5.111,0,9.259-4.148,9.259-9.26
			c0-5.112-4.147-9.259-9.259-9.259H9.261C4.148,110.128,0,114.276,0,119.388z"/>
		<path fill="#FFCC00" d="M203.734,119.388c0,5.111,4.148,9.26,9.262,9.26h18.521c5.111,0,9.261-4.148,9.261-9.26
			c0-5.112-4.148-9.259-9.261-9.259h-18.522C207.883,110.128,203.734,114.276,203.734,119.388z"/>
	</g>
	<g>
		<path fill="#FFCC00" d="M35.258,34.258c-3.619,3.617-3.619,9.478,0,13.095l13.095,13.095c3.619,3.618,9.479,3.618,13.095,0
			c3.617-3.616,3.617-9.477,0-13.095L48.352,34.258C44.736,30.639,38.875,30.639,35.258,34.258z"/>
		<path fill="#FFCC00" d="M179.326,178.317c-3.613,3.617-3.629,9.478,0,13.094l13.097,13.097c3.618,3.618,9.479,3.618,13.095,0
			c3.618-3.617,3.618-9.477,0-13.097l-13.095-13.094C188.794,174.698,182.944,174.698,179.326,178.317z"/>
	</g>
</g>
<g id="Layer_3">
	<ellipse fill="#FFCC00" cx="121.818" cy="120.289" rx="54.792" ry="54.489"/>
	<g id="Layer_2_2_">
		<circle cx="128.614" cy="87.774" r="4.43"/>
	</g>
</g>
<g id="Layer_1">
	<path id="pac_man" fill="#FFCC00" d="M122.121,120.289l48.717-24.357c0,0-11.612-28.229-47.586-30.323
		c0,0-24.359,0.162-38.553,14.841c0,0-12.099,9.999-15.81,26.129c0,0-4.194,13.229,0,27.586c0,0,2.42,14.031,16.937,27.421
		c0,0,15.323,13.554,33.473,13.554c0,0,23.146,1.286,37.341-12.582c0,0,8.873-6.455,14.197-17.584L122.121,120.289z"/>
	<g id="Layer_2_1_">
		<circle cx="128.614" cy="87.774" r="4.43"/>
	</g>
</g>
</svg>
