<?xml version="1.0" encoding="utf-8"?>
<!-- Generator: Adobe Illustrator 16.0.0, SVG Export Plug-In . SVG Version: 6.00 Build 0)  -->
<!DOCTYPE svg PUBLIC "-//W3C//DTD SVG 1.1//EN" "http://www.w3.org/Graphics/SVG/1.1/DTD/svg11.dtd">
<svg version="1.1" id="Layer_1" xmlns="http://www.w3.org/2000/svg" xmlns:xlink="http://www.w3.org/1999/xlink" x="0px" y="0px"
	 width="240.777px" height="240.776px" viewBox="7.265 7.021 240.777 240.776" enable-background="new 7.265 7.021 240.777 240.776"
	 xml:space="preserve">
<g id="Layer_2">
	<circle cx="141.354" cy="83" r="6"/>
</g>
<g>
	<g>
		<path fill="#FFCC00" d="M129.386,127.31l48.717-24.358c0,0-11.612-28.228-47.586-30.323c0,0-24.359,0.162-38.552,14.841
			c0,0-12.099,9.999-15.81,26.129c0,0-4.194,13.228,0,27.586c0,0,2.42,14.031,16.937,27.421c0,0,15.323,13.553,33.472,13.553
			c0,0,23.146,1.287,37.341-12.582c0,0,8.873-6.455,14.197-17.584L129.386,127.31z"/>
		<g id="Layer_2_1_">
			<circle cx="135.88" cy="94.794" r="4.43"/>
		</g>
	</g>
	<g>
		<path fill-rule="evenodd" clip-rule="evenodd" fill="#FFCC00" d="M127.653,7.021c-5.113,0-9.26,4.147-9.26,9.26v18.521
			c0,5.112,4.147,9.262,9.26,9.262c5.115,0,9.26-4.15,9.26-9.262V16.281C136.913,11.168,132.768,7.021,127.653,7.021z"/>
		<path fill-rule="evenodd" clip-rule="evenodd" fill="#FFCC00" d="M127.653,210.755c-5.113,0-9.26,4.147-9.26,9.261v18.521
			c0,5.113,4.147,9.261,9.26,9.261c5.115,0,9.26-4.147,9.26-9.261v-18.521C136.913,214.902,132.768,210.755,127.653,210.755z"/>
	</g>
	<g>
		<path fill-rule="evenodd" clip-rule="evenodd" fill="#FFCC00" d="M212.772,42.279c-3.618-3.62-9.477-3.62-13.095,0l-13.095,13.094
			c-3.619,3.618-3.619,9.479,0,13.095c3.618,3.618,9.477,3.618,13.095,0l13.095-13.095C216.39,51.756,216.39,45.896,212.772,42.279z
			"/>
		<path fill-rule="evenodd" clip-rule="evenodd" fill="#FFCC00" d="M68.726,186.35c-3.618-3.618-9.479-3.631-13.095,0
			l-13.095,13.094c-3.619,3.618-3.619,9.478,0,13.095c3.616,3.62,9.477,3.62,13.095,0l13.095-13.095
			C72.342,195.814,72.342,189.966,68.726,186.35z"/>
	</g>
	<g>
		<path fill-rule="evenodd" clip-rule="evenodd" fill="#FFCC00" d="M7.265,127.408c0,5.112,4.149,9.26,9.262,9.26h18.521
			c5.111,0,9.258-4.148,9.258-9.26s-4.147-9.258-9.258-9.258H16.527C11.414,118.149,7.265,122.296,7.265,127.408z"/>
		<path fill-rule="evenodd" clip-rule="evenodd" fill="#FFCC00" d="M211,127.408c0,5.112,4.148,9.26,9.261,9.26h18.521
			c5.111,0,9.261-4.148,9.261-9.26s-4.149-9.258-9.261-9.258H220.26C215.148,118.149,211,122.296,211,127.408z"/>
	</g>
	<g>
		<path fill-rule="evenodd" clip-rule="evenodd" fill="#FFCC00" d="M42.523,42.279c-3.619,3.617-3.619,9.477,0,13.094l13.095,13.095
			c3.619,3.618,9.479,3.618,13.095,0c3.617-3.616,3.617-9.477,0-13.095L55.618,42.279C52.002,38.659,46.14,38.659,42.523,42.279z"/>
		<path fill-rule="evenodd" clip-rule="evenodd" fill="#FFCC00" d="M186.592,186.337c-3.614,3.617-3.629,9.478,0,13.094
			l13.096,13.097c3.618,3.618,9.479,3.618,13.095,0c3.618-3.618,3.618-9.477,0-13.097l-13.095-13.094
			C196.059,182.719,190.21,182.719,186.592,186.337z"/>
	</g>
</g>
</svg>
