<?xml version="1.0" encoding="utf-8"?>
<!-- Generator: Adobe Illustrator 16.0.0, SVG Export Plug-In . SVG Version: 6.00 Build 0)  -->
<!DOCTYPE svg PUBLIC "-//W3C//DTD SVG 1.1//EN" "http://www.w3.org/Graphics/SVG/1.1/DTD/svg11.dtd">
<svg version="1.1" xmlns="http://www.w3.org/2000/svg" xmlns:xlink="http://www.w3.org/1999/xlink" x="0px" y="0px"
	 width="177.427px" height="205.586px" viewBox="0.288 2.102 177.427 205.586" enable-background="new 0.288 2.102 177.427 205.586"
	 xml:space="preserve">
<g id="Layer_1">
	<g id="Layer_1_1_">
		<path fill="#C6C6C6" d="M138.632,24.237c-1.839,0-3.651,0.128-5.462,0.389C122.837,10.544,106.532,2.102,88.827,2.102
			c-17.702,0-34.001,8.441-44.34,22.523c-1.807-0.261-3.626-0.389-5.462-0.389c-21.357,0-38.737,17.378-38.737,38.736
			c0,21.357,17.38,38.736,38.737,38.736c4.732,0,9.367-0.864,13.732-2.536c10.018,8.732,22.756,13.604,36.069,13.604
			c13.329,0,26.056-4.871,36.072-13.604c4.367,1.672,8.998,2.536,13.732,2.536c21.357,0,38.737-17.38,38.737-38.736
			C177.369,41.616,159.99,24.237,138.632,24.237z M138.632,90.642c-5.925,0-11.385-1.902-15.889-5.073
			c-8.119,9.786-20.21,16.141-33.917,16.141c-13.704,0-25.792-6.354-33.914-16.141c-4.499,3.17-9.967,5.073-15.889,5.073
			c-15.283,0-27.669-12.387-27.669-27.669c0-15.281,12.386-27.668,27.669-27.668c3.736,0,7.284,0.765,10.525,2.103
			C56.893,23.083,71.634,13.17,88.827,13.17s31.938,9.913,39.271,24.238c3.251-1.338,6.804-2.103,10.534-2.103
			c15.283,0,27.67,12.387,27.67,27.668C166.301,78.255,153.916,90.642,138.632,90.642z"/>
	</g>
	<g id="Layer_2">
		<g>
			<path fill="#1E8FE2" d="M27.022,147.611c3.399,0,6.809,0,10.209,0c0,1.621,0,3.229,0.012,4.852c2.142,0,4.301,0,6.453,0
				c0,1.699,0,3.4,0,5.101c1.607,0,3.207,0,4.818,0c0,2.104,0,4.221,0.008,6.326c1.746,0,3.494,0.012,5.249,0.012
				c0,3.399,0,6.801,0,10.201c-3.321,0-6.631,0-9.952,0c0,2.207,0,4.422,0,6.629c1.663,0,3.342,0,5.02-0.008
				c-0.009,1.653-0.009,3.307-0.009,4.963c2.19,0,4.399,0,6.616,0c-0.012,2.215-0.012,4.424,0,6.643c-2.217,0-4.426,0-6.631,0
				c0-2.207,0-4.414,0.015-6.611c-1.688-0.021-3.38-0.043-5.058-0.065c0.012-1.633,0.012-3.254,0.022-4.887c-2.149,0-4.288,0-6.43,0
				c0,1.521-0.008,3.053,0,4.571c1.916,0,3.828,0,5.753,0c0,2.205,0,4.414,0,6.619c-2.218,0-4.423,0-6.632,0
				c0-2.115,0-4.221,0-6.328c-2.902,0-5.807,0-8.713,0c-0.009,2.097-0.009,4.189,0,6.283c-2.214,0-4.422,0-6.631,0
				c0-2.219,0-4.434,0-6.652c1.869,0.011,3.749,0.011,5.629,0.011c-0.008-1.508-0.008-3.006,0-4.504c-2.104,0-4.197,0-6.291,0
				c-0.013,1.645-0.013,3.276-0.013,4.909c-1.678,0-3.355,0-5.022,0c-0.008,2.22-0.008,4.437,0,6.654c-2.217,0-4.422,0-6.631,0
				c0-2.207,0-4.428,0-6.643c2.197,0,4.401,0,6.61,0c0-1.656,0-3.301,0.013-4.955c1.663,0,3.33,0,5.011-0.008
				c0-2.207,0-4.414,0-6.621c-3.324,0-6.646,0-9.955,0c0-3.4,0-6.801,0-10.201c1.745,0,3.491-0.012,5.245-0.012
				c-0.012-2.105-0.012-4.222,0-6.326c1.6,0,3.223,0,4.83-0.012c0-1.701,0-3.39,0-5.089c2.152,0,4.3,0,6.465,0
				C27.022,150.842,27.022,149.221,27.022,147.611z M20.435,162.246c0,2.308,0,4.604,0,6.91c2.205,0,4.426,0,6.643,0
				c0-2.307,0-4.613,0-6.91C24.86,162.246,22.64,162.246,20.435,162.246z M37.177,162.246c0,2.308,0,4.604,0,6.91
				c2.218,0,4.438,0,6.654,0c0-2.307,0-4.613,0-6.91C41.613,162.246,39.394,162.246,37.177,162.246z M27.065,180.359
				c3.377,0,6.742,0,10.123,0c0-2.082,0-4.178,0-6.258c-3.381,0-6.746,0-10.123,0C27.065,176.182,27.065,178.266,27.065,180.359z"/>
		</g>
	</g>
	<g id="Layer_3">
		<g>
			<path fill="#1E8FE2" d="M77.987,123.154c1.187,0,3.55,0.015,4.725,0.015c0,1.095,0,3.283,0,4.378c1.484,0,2.964,0,4.461,0.013
				c-0.016,2.043,0,4.086,0,6.144c5.034,0,10.078,0,15.127,0c0-2.043,0-4.101,0-6.144c1.482-0.013,2.962-0.013,4.458-0.013
				c0-1.095-0.015-3.283-0.015-4.378c1.189,0,3.553-0.015,4.729-0.015c0.015,1.162,0.025,3.485,0.025,4.659
				c-1.497,0-2.99,0.015-4.473,0.025c0,1.963,0,3.912,0,5.876c1.521-0.014,3.058-0.025,4.578-0.025
				c0.015,1.587,0.025,3.188,0.041,4.775c2.041-0.012,4.101-0.012,6.155-0.023c-0.015-3.537-0.015-7.09-0.015-10.628
				c1.535,0,3.069,0,4.619,0c-0.015,6.623-0.015,13.229,0,19.854c-1.137,0-3.38,0-4.499,0c-0.015,1.963-0.015,3.924-0.015,5.9
				c-2.003,0-4.005,0-6.008,0c0,2.016,0,4.019,0,6.033c1.522,0,3.043,0,4.565,0.015c0,1.163,0.015,3.497,0.015,4.659
				c-1.188,0-3.553,0-4.727,0c0-1.109,0-3.297,0-4.394c-1.535-0.013-3.06-0.013-4.578-0.013c0-2.096,0-4.206,0-6.302
				c-8.28,0-16.568,0-24.86,0c0,2.096,0,4.206,0,6.302c-1.55,0-3.084,0-4.634,0c0,1.122,0,3.362,0,4.484c-1.174,0-3.538,0-4.725,0
				c0-1.16,0.012-3.471,0.012-4.634c1.535,0,3.072-0.013,4.619-0.013c0-2.043,0-4.099,0-6.141c-2.015,0-4.019,0-6.02,0
				c0-1.978,0-3.938,0-5.913c-1.121,0.013-3.364,0.013-4.486,0.013c0-6.609,0-13.229,0-19.854c1.535,0,3.069,0,4.606,0
				c0,3.553,0,7.102,0,10.651c2.068-0.012,4.14-0.023,6.209-0.038c-0.028-1.176-0.056-3.537-0.082-4.712
				c1.551-0.014,3.084-0.014,4.635-0.025c0-1.951,0-3.898,0.012-5.851c-1.497-0.012-2.991-0.025-4.473-0.025
				C77.987,126.652,77.987,124.316,77.987,123.154z M82.284,138.175c0,1.161,0,3.495,0,4.658c1.189,0,3.567,0,4.754,0
				c0-1.163,0-3.497,0-4.658C85.45,138.175,83.874,138.175,82.284,138.175z M102.431,138.175c0,1.161-0.016,3.495-0.016,4.658
				c1.189,0,3.564,0,4.754,0c0-1.163,0-3.497,0-4.658C105.583,138.175,104.007,138.175,102.431,138.175z"/>
		</g>
	</g>
	<g id="Layer_4">
		<g>
			<path fill="#1E8FE2" d="M143.99,175.026c0-1.684,0-3.377,0.009-5.058c5.731,0,11.46,0,17.189,0c0,1.681,0,3.374,0.012,5.058
				c4.188,0,8.389,0,12.573,0c0,0.953,0,2.857,0,3.811c0.986,0,2.956,0,3.941,0c0,4.234,0,8.474,0,12.705c-4.224,0-8.445,0-12.657,0
				c-0.013,1.693,0,3.39,0,5.082c1.634,0,3.282,0,4.917,0c0,0.965,0,2.895,0,3.86c2.555,0,5.104,0,7.671,0.01c0,0.93,0,2.79,0,3.717
				c-2.551-0.01-5.104-0.01-7.659-0.01c0-0.87,0-2.625,0-3.507c-2.905,0-5.812,0-8.716,0c-0.013-1.776-0.013-3.564,0-5.341
				c-0.999,0-3.012-0.013-4.014-0.013c-0.009,1.683-0.009,3.378-0.009,5.059c-3.109,0-6.212,0-9.315,0c0-1.681,0-3.376,0-5.059
				c-1.346,0-2.688,0-4.024,0.013c0,1.775,0,3.563,0,5.341c-2.905,0-5.8,0-8.708,0c0,0.882-0.012,2.637-0.012,3.517
				c-2.555,0-5.104-0.01-7.646,0c-0.012-0.927-0.012-2.787-0.012-3.717c2.552-0.01,5.117-0.01,7.668-0.01c0-0.967,0-2.896,0-3.86
				c1.638,0,3.283,0,4.918,0c0-1.692,0-3.389,0-5.082c-4.224,0-8.436,0-12.659,0c0-4.231,0-8.471,0-12.705
				c1.308-0.012,2.625-0.012,3.942,0c0-0.952,0-2.856,0-3.811C135.601,175.026,139.79,175.026,143.99,175.026z M140.258,182.555
				c-0.009,1.342-0.009,2.671-0.009,4.013c2.551,0,5.116,0,7.684,0c0-1.342,0-2.684,0-4.013
				C145.366,182.555,142.812,182.555,140.258,182.555z M157.257,182.543c0,1.013-0.009,3.024-0.009,4.024
				c2.551,0,5.113,0,7.668,0.01c0.013-1.01,0.013-3.021,0.013-4.021C162.377,182.555,159.811,182.555,157.257,182.543z"/>
		</g>
	</g>
</g>
<g id="Layer_2_1_">
	<g id="Layer_2_2_">
		<g>
			<path fill="#1E8FE2" d="M27.022,100.795c3.399,0,6.809,0,10.209,0c0,1.621,0,3.229,0.012,4.852c2.142,0,4.301,0,6.453,0
				c0,1.699,0,3.4,0,5.101c1.607,0,3.207,0,4.818,0c0,2.104,0,4.221,0.008,6.326c1.746,0,3.494,0.012,5.249,0.012
				c0,3.399,0,6.801,0,10.201c-3.321,0-6.631,0-9.952,0c0,2.207,0,4.422,0,6.629c1.663,0,3.342,0,5.02-0.008
				c-0.009,1.653-0.009,3.307-0.009,4.963c2.19,0,4.399,0,6.616,0c-0.012,2.215-0.012,4.424,0,6.643c-2.217,0-4.426,0-6.631,0
				c0-2.207,0-4.414,0.015-6.611c-1.688-0.021-3.38-0.043-5.058-0.065c0.012-1.633,0.012-3.254,0.022-4.887c-2.149,0-4.288,0-6.43,0
				c0,1.521-0.008,3.053,0,4.571c1.916,0,3.828,0,5.753,0c0,2.205,0,4.414,0,6.619c-2.218,0-4.423,0-6.632,0
				c0-2.115,0-4.221,0-6.328c-2.902,0-5.807,0-8.713,0c-0.009,2.097-0.009,4.189,0,6.283c-2.214,0-4.422,0-6.631,0
				c0-2.219,0-4.434,0-6.652c1.869,0.011,3.749,0.011,5.629,0.011c-0.008-1.508-0.008-3.006,0-4.504c-2.104,0-4.197,0-6.291,0
				c-0.013,1.645-0.013,3.276-0.013,4.909c-1.678,0-3.355,0-5.022,0c-0.008,2.22-0.008,4.437,0,6.654c-2.217,0-4.422,0-6.631,0
				c0-2.207,0-4.428,0-6.643c2.197,0,4.401,0,6.61,0c0-1.656,0-3.301,0.013-4.955c1.663,0,3.33,0,5.011-0.008
				c0-2.207,0-4.414,0-6.621c-3.324,0-6.646,0-9.955,0c0-3.4,0-6.801,0-10.201c1.745,0,3.491-0.012,5.245-0.012
				c-0.012-2.105-0.012-4.222,0-6.326c1.6,0,3.223,0,4.83-0.012c0-1.701,0-3.39,0-5.089c2.152,0,4.3,0,6.465,0
				C27.022,104.025,27.022,102.405,27.022,100.795z M20.435,115.429c0,2.308,0,4.604,0,6.91c2.205,0,4.426,0,6.643,0
				c0-2.307,0-4.613,0-6.91C24.86,115.429,22.64,115.429,20.435,115.429z M37.177,115.429c0,2.308,0,4.604,0,6.91
				c2.218,0,4.438,0,6.654,0c0-2.307,0-4.613,0-6.91C41.613,115.429,39.394,115.429,37.177,115.429z M27.065,133.543
				c3.377,0,6.742,0,10.123,0c0-2.082,0-4.178,0-6.258c-3.381,0-6.746,0-10.123,0C27.065,129.366,27.065,131.45,27.065,133.543z"/>
		</g>
	</g>
	<g id="Layer_3_1_">
		<g>
			<path fill="#1E8FE2" d="M77.987,166.49c1.187,0,3.55,0.015,4.725,0.015c0,1.095,0,3.283,0,4.378c1.484,0,2.964,0,4.461,0.013
				c-0.016,2.043,0,4.086,0,6.144c5.034,0,10.078,0,15.127,0c0-2.043,0-4.101,0-6.144c1.482-0.013,2.962-0.013,4.458-0.013
				c0-1.095-0.015-3.283-0.015-4.378c1.189,0,3.553-0.015,4.729-0.015c0.015,1.162,0.025,3.485,0.025,4.659
				c-1.497,0-2.99,0.015-4.473,0.025c0,1.963,0,3.912,0,5.876c1.521-0.014,3.058-0.025,4.578-0.025
				c0.015,1.587,0.025,3.188,0.041,4.775c2.041-0.012,4.101-0.012,6.155-0.023c-0.015-3.537-0.015-7.09-0.015-10.628
				c1.535,0,3.069,0,4.619,0c-0.015,6.623-0.015,13.229,0,19.854c-1.137,0-3.38,0-4.499,0c-0.015,1.963-0.015,3.924-0.015,5.9
				c-2.003,0-4.005,0-6.008,0c0,2.016,0,4.019,0,6.033c1.522,0,3.043,0,4.565,0.015c0,1.163,0.015,3.497,0.015,4.659
				c-1.188,0-3.553,0-4.727,0c0-1.109,0-3.297,0-4.394c-1.535-0.013-3.06-0.013-4.578-0.013c0-2.096,0-4.206,0-6.302
				c-8.28,0-16.568,0-24.86,0c0,2.096,0,4.206,0,6.302c-1.55,0-3.084,0-4.634,0c0,1.122,0,3.362,0,4.484c-1.174,0-3.538,0-4.725,0
				c0-1.16,0.012-3.471,0.012-4.634c1.535,0,3.072-0.013,4.619-0.013c0-2.043,0-4.099,0-6.141c-2.015,0-4.019,0-6.02,0
				c0-1.978,0-3.938,0-5.913c-1.121,0.013-3.364,0.013-4.486,0.013c0-6.609,0-13.229,0-19.854c1.535,0,3.069,0,4.606,0
				c0,3.553,0,7.102,0,10.651c2.068-0.012,4.14-0.023,6.209-0.038c-0.028-1.176-0.056-3.537-0.082-4.712
				c1.551-0.014,3.084-0.014,4.635-0.025c0-1.951,0-3.898,0.012-5.851c-1.497-0.012-2.991-0.025-4.473-0.025
				C77.987,169.988,77.987,167.652,77.987,166.49z M82.284,181.51c0,1.161,0,3.495,0,4.658c1.189,0,3.567,0,4.754,0
				c0-1.163,0-3.497,0-4.658C85.45,181.51,83.874,181.51,82.284,181.51z M102.431,181.51c0,1.161-0.016,3.495-0.016,4.658
				c1.189,0,3.564,0,4.754,0c0-1.163,0-3.497,0-4.658C105.583,181.51,104.007,181.51,102.431,181.51z"/>
		</g>
	</g>
	<g id="Layer_4_1_">
		<g>
			<path fill="#1E8FE2" d="M143.99,128.211c0-1.684,0-3.377,0.009-5.058c5.731,0,11.46,0,17.189,0c0,1.681,0,3.374,0.012,5.058
				c4.188,0,8.389,0,12.573,0c0,0.953,0,2.857,0,3.811c0.986,0,2.956,0,3.941,0c0,4.234,0,8.474,0,12.705c-4.224,0-8.445,0-12.657,0
				c-0.013,1.693,0,3.39,0,5.082c1.634,0,3.282,0,4.917,0c0,0.965,0,2.895,0,3.86c2.555,0,5.104,0,7.671,0.01c0,0.93,0,2.79,0,3.717
				c-2.551-0.01-5.104-0.01-7.659-0.01c0-0.87,0-2.625,0-3.507c-2.905,0-5.812,0-8.716,0c-0.013-1.776-0.013-3.564,0-5.341
				c-0.999,0-3.012-0.013-4.014-0.013c-0.009,1.683-0.009,3.378-0.009,5.059c-3.109,0-6.212,0-9.315,0c0-1.681,0-3.376,0-5.059
				c-1.346,0-2.688,0-4.024,0.013c0,1.775,0,3.563,0,5.341c-2.905,0-5.8,0-8.708,0c0,0.882-0.012,2.637-0.012,3.517
				c-2.555,0-5.104-0.01-7.646,0c-0.012-0.927-0.012-2.787-0.012-3.717c2.552-0.01,5.117-0.01,7.668-0.01c0-0.967,0-2.896,0-3.86
				c1.638,0,3.283,0,4.918,0c0-1.692,0-3.389,0-5.082c-4.224,0-8.436,0-12.659,0c0-4.231,0-8.471,0-12.705
				c1.308-0.012,2.625-0.012,3.942,0c0-0.952,0-2.856,0-3.811C135.601,128.211,139.79,128.211,143.99,128.211z M140.258,135.74
				c-0.009,1.342-0.009,2.671-0.009,4.013c2.551,0,5.116,0,7.684,0c0-1.342,0-2.684,0-4.013
				C145.366,135.74,142.812,135.74,140.258,135.74z M157.257,135.727c0,1.013-0.009,3.024-0.009,4.024c2.551,0,5.113,0,7.668,0.01
				c0.013-1.01,0.013-3.021,0.013-4.021C162.377,135.74,159.811,135.74,157.257,135.727z"/>
		</g>
	</g>
</g>
</svg>
