<?xml version="1.0" encoding="utf-8"?>
<!-- Generator: Adobe Illustrator 16.0.0, SVG Export Plug-In . SVG Version: 6.00 Build 0)  -->
<!DOCTYPE svg PUBLIC "-//W3C//DTD SVG 1.1//EN" "http://www.w3.org/Graphics/SVG/1.1/DTD/svg11.dtd">
<svg version="1.1" id="Layer_1" xmlns="http://www.w3.org/2000/svg" xmlns:xlink="http://www.w3.org/1999/xlink" x="0px" y="0px"
	 width="197.284px" height="221.15px" viewBox="0 0 197.284 221.15" enable-background="new 0 0 197.284 221.15"
	 xml:space="preserve">
<g>
	<g>
		<g>
			<rect x="59.285" y="171.334" fill="#6DEEFC" width="13.978" height="13.977"/>
			<g>
				<rect x="42.769" y="171.334" fill="#6DEEFC" width="13.978" height="13.977"/>
				<rect x="42.769" y="188.35" fill="#6DEEFC" width="13.978" height="13.976"/>
				<rect x="59.285" y="188.35" fill="#6DEEFC" width="13.978" height="13.976"/>
			</g>
		</g>
		<g>
			<rect x="128.363" y="206.452" fill="#6DEEFC" width="14.698" height="14.698"/>
			<rect x="145.735" y="188.562" fill="#6DEEFC" width="14.7" height="14.695"/>
			<rect x="145.735" y="206.452" fill="#6DEEFC" width="14.7" height="14.698"/>
			<rect x="163.109" y="206.452" fill="#6DEEFC" width="14.7" height="14.698"/>
		</g>
		<g>
			<rect x="79.108" y="136.644" fill="#6DEEFC" width="16.079" height="16.079"/>
			<rect x="98.111" y="136.644" fill="#6DEEFC" width="16.079" height="16.079"/>
			<rect x="98.111" y="156.214" fill="#6DEEFC" width="16.079" height="16.077"/>
			<rect x="98.111" y="175.783" fill="#6DEEFC" width="16.079" height="16.076"/>
		</g>
		<path fill-rule="evenodd" clip-rule="evenodd" fill="#6DEEFC" d="M175.467,148.71l-3.729-0.99
			c-0.087-1.183-0.372-2.309-0.892-3.387l2.706-2.708c1.273-1.273,1.266-3.33,0-4.586c-1.262-1.266-3.307-1.271-4.58,0l-2.712,2.701
			c-1.064-0.5-2.204-0.789-3.383-0.887l-0.988-3.725c-0.464-1.72-2.239-2.756-3.975-2.291c-1.728,0.469-2.739,2.244-2.287,3.973
			l0.989,3.668c-0.487,0.336-0.953,0.708-1.391,1.135c-0.423,0.435-0.782,0.897-1.117,1.377l-3.67-0.992
			c-1.729-0.463-3.519,0.579-3.982,2.295c-0.462,1.734,0.581,3.502,2.29,3.975l3.703,0.994c0.104,1.166,0.399,2.307,0.919,3.383
			l-2.719,2.719c-1.261,1.268-1.254,3.311,0.013,4.572c1.261,1.261,3.305,1.272,4.563,0.012l2.729-2.725
			c1.063,0.525,2.21,0.824,3.394,0.912l0.975,3.711c0.479,1.729,2.241,2.758,3.975,2.293c1.724-0.461,2.768-2.236,2.303-3.984
			l-0.988-3.669c0.462-0.333,0.938-0.697,1.374-1.122c0.425-0.429,0.785-0.905,1.12-1.38l3.674,0.987
			c1.732,0.465,3.512-0.57,3.968-2.289C178.215,150.96,177.192,149.188,175.467,148.71z M164.402,150.773
			c-1.274,1.273-3.324,1.266-4.59,0c-1.254-1.254-1.266-3.309,0-4.586c1.266-1.258,3.323-1.258,4.59,0
			C165.655,147.458,165.655,149.52,164.402,150.773z"/>
		<path fill-rule="evenodd" clip-rule="evenodd" fill="#6DEEFC" d="M40.12,135.15l-2.781,0.748
			c-0.258-0.354-0.529-0.709-0.855-1.043c-0.332-0.32-0.685-0.598-1.05-0.846l0.745-2.8c0.353-1.312-0.428-2.667-1.727-3.013
			c-1.317-0.35-2.667,0.432-3.016,1.738l-0.764,2.828c-0.895,0.074-1.748,0.291-2.562,0.68l-2.065-2.056
			c-0.966-0.968-2.519-0.964-3.475,0c-0.964,0.96-0.964,2.519,0,3.479l2.055,2.053c-0.387,0.823-0.611,1.686-0.678,2.573
			l-2.822,0.753c-1.317,0.361-2.101,1.697-1.748,3.018c0.357,1.305,1.705,2.078,3.023,1.738l2.78-0.758
			c0.249,0.376,0.53,0.729,0.864,1.055c0.323,0.32,0.674,0.609,1.039,0.848l-0.747,2.788c-0.35,1.317,0.433,2.678,1.738,3.026
			c1.318,0.353,2.656-0.43,3.01-1.74l0.758-2.812c0.896-0.072,1.759-0.301,2.579-0.688l2.062,2.059
			c0.955,0.967,2.506,0.946,3.476-0.01c0.951-0.951,0.965-2.51,0-3.471l-2.066-2.064c0.396-0.811,0.631-1.684,0.687-2.58
			l2.827-0.744c1.308-0.355,2.086-1.699,1.734-3.018C42.788,135.589,41.441,134.807,40.12,135.15z M33.003,141.82
			c-0.961,0.96-2.521,0.96-3.487,0c-0.95-0.961-0.95-2.526,0-3.477c0.967-0.957,2.526-0.957,3.487,0S33.952,140.859,33.003,141.82z"
			/>
	</g>
	<path fill-rule="evenodd" clip-rule="evenodd" fill="#C6C6C6" d="M197.284,67.818c0-23.796-19.362-43.158-43.157-43.158
		c-2.046,0-4.067,0.145-6.084,0.434C136.531,9.408,118.366,0,98.643,0C78.918,0,60.76,9.408,49.241,25.094
		c-2.017-0.289-4.039-0.434-6.084-0.434C19.362,24.66,0,44.022,0,67.818c0,23.79,19.362,43.154,43.157,43.154
		c5.273,0,10.435-0.965,15.301-2.826c11.155,9.73,25.347,15.157,40.185,15.157c14.851,0,29.028-5.427,40.184-15.157
		c4.866,1.861,10.027,2.826,15.301,2.826C177.922,110.973,197.284,91.608,197.284,67.818z M136.427,92.992
		c-9.048,10.897-22.516,17.98-37.784,17.98c-15.271,0-28.737-7.083-37.786-17.98c-5.009,3.531-11.104,5.65-17.699,5.65
		c-17.028,0-30.826-13.799-30.826-30.824c0-17.031,13.798-30.828,30.826-30.828c4.167,0,8.114,0.852,11.726,2.346
		c8.18-15.96,24.604-27.007,43.76-27.007c19.154,0,35.579,11.047,43.751,27.007c3.621-1.494,7.574-2.346,11.733-2.346
		c17.026,0,30.826,13.797,30.826,30.828c0,17.025-13.8,30.824-30.826,30.824C147.528,98.643,141.446,96.523,136.427,92.992z"/>
</g>
</svg>
