<?xml version="1.0" encoding="utf-8"?>
<!-- Generator: Adobe Illustrator 16.0.0, SVG Export Plug-In . SVG Version: 6.00 Build 0)  -->
<!DOCTYPE svg PUBLIC "-//W3C//DTD SVG 1.1//EN" "http://www.w3.org/Graphics/SVG/1.1/DTD/svg11.dtd">
<svg version="1.1" id="Layer_1" xmlns="http://www.w3.org/2000/svg" xmlns:xlink="http://www.w3.org/1999/xlink" x="0px" y="0px"
	 width="177.716px" height="209.242px" viewBox="0 0 177.716 209.242" enable-background="new 0 0 177.716 209.242"
	 xml:space="preserve">
<g>
	<path fill-rule="evenodd" clip-rule="evenodd" fill="#C6C6C6" d="M139.019,22.444c-1.842-0.008-3.666,0.115-5.483,0.366
		C123.232,8.631,106.907,0.083,89.139,0S54.976,8.319,44.536,22.4c-1.815-0.269-3.638-0.407-5.481-0.415
		C17.62,21.884,0.098,39.249,0,60.681C-0.1,82.114,17.26,99.635,38.695,99.736c4.752,0.021,9.407-0.824,13.796-2.482
		c7.447,6.55,16.407,10.938,26.009,12.795l-12.137,12.028l11.058,11.16l-11.264,33.27l33.477-33.168L88.576,122.18l3.871-11.436
		c11.966-0.791,23.323-5.287,32.442-13.155c4.375,1.697,9.022,2.585,13.771,2.606c21.435,0.101,38.957-17.26,39.056-38.694
		C177.816,40.066,160.454,22.544,139.019,22.444z M138.712,89.088c-5.944-0.027-11.415-1.961-15.92-5.164
		c-6.611,7.895-15.878,13.334-26.408,15.187l-7.706,0.854C74.925,99.903,62.82,93.469,54.714,83.61
		c-4.525,3.162-10.022,5.045-15.968,5.018c-15.337-0.071-27.71-12.56-27.64-27.895c0.071-15.339,12.559-27.712,27.896-27.642
		c3.753,0.019,7.308,0.8,10.558,2.161c7.434-14.344,22.275-24.225,39.527-24.146c17.254,0.081,32.004,10.1,39.298,24.509
		c3.269-1.329,6.84-2.079,10.584-2.062c15.339,0.07,27.711,12.559,27.64,27.896C166.539,76.784,154.05,89.16,138.712,89.088z"/>
	<g>
		<g>
			<path fill="#1CA7E5" d="M19.386,117.424c3.376,0.014,6.762,0.031,10.141,0.047c-0.008,1.607-0.014,3.207-0.012,4.818
				c2.127,0.01,4.271,0.02,6.407,0.031c-0.008,1.686-0.017,3.373-0.024,5.061c1.597,0.008,3.185,0.016,4.784,0.021
				c-0.009,2.09-0.019,4.193-0.019,6.283c1.731,0.008,3.468,0.027,5.21,0.035c-0.016,3.377-0.03,6.752-0.047,10.131
				c-3.296-0.016-6.584-0.031-9.883-0.047c-0.009,2.191-0.021,4.391-0.029,6.584c1.652,0.008,3.318,0.014,4.983,0.014
				c-0.016,1.643-0.021,3.285-0.03,4.928c2.177,0.01,4.369,0.02,6.571,0.031c-0.021,2.199-0.031,4.391-0.03,6.596
				c-2.202-0.012-4.395-0.021-6.584-0.031c0.01-2.191,0.021-4.383,0.043-6.564c-1.679-0.029-3.354-0.057-5.02-0.09
				c0.018-1.619,0.024-3.23,0.044-4.85c-2.136-0.01-4.26-0.02-6.385-0.031c-0.006,1.512-0.023,3.031-0.02,4.539
				c1.901,0.01,3.802,0.02,5.713,0.027c-0.011,2.189-0.021,4.383-0.031,6.574c-2.201-0.012-4.393-0.021-6.584-0.031
				c0.01-2.102,0.019-4.191,0.029-6.283c-2.884-0.014-5.769-0.027-8.652-0.041c-0.021,2.08-0.031,4.16-0.029,6.24
				c-2.199-0.012-4.394-0.021-6.584-0.031c0.011-2.205,0.02-4.402,0.03-6.607c1.854,0.02,3.722,0.027,5.589,0.037
				c-0.004-1.498,0.004-2.984,0.02-4.473c-2.088-0.008-4.167-0.018-6.246-0.027c-0.018,1.633-0.024,3.252-0.032,4.875
				c-1.668-0.008-3.334-0.016-4.989-0.021c-0.02,2.201-0.03,4.402-0.03,6.605c-2.201-0.012-4.392-0.021-6.584-0.029
				c0.011-2.193,0.02-4.396,0.03-6.598c2.18,0.01,4.372,0.021,6.562,0.029c0.008-1.643,0.016-3.277,0.035-4.918
				c1.652,0.008,3.308,0.014,4.976,0.014c0.009-2.191,0.02-4.383,0.03-6.574c-3.299-0.016-6.598-0.029-9.885-0.045
				c0.016-3.377,0.031-6.754,0.046-10.129c1.733,0.01,3.466,0.004,5.21,0.012c-0.002-2.09,0.008-4.193,0.03-6.281
				c1.586,0.006,3.195,0.016,4.795,0.01c0.009-1.688,0.017-3.363,0.024-5.051c2.137,0.01,4.269,0.02,6.416,0.031
				C19.373,120.633,19.378,119.021,19.386,117.424z M12.781,131.928c-0.011,2.289-0.021,4.568-0.03,6.861
				c2.188,0.01,4.394,0.02,6.593,0.031c0.011-2.293,0.021-4.584,0.032-6.863C17.174,131.947,14.97,131.936,12.781,131.928z
				 M29.402,132.004c-0.01,2.289-0.021,4.57-0.031,6.861c2.204,0.01,4.406,0.021,6.608,0.029c0.011-2.289,0.021-4.58,0.031-6.861
				C33.809,132.023,31.607,132.012,29.402,132.004z M19.283,149.943c3.354,0.014,6.694,0.029,10.05,0.047
				c0.009-2.068,0.019-4.15,0.027-6.215c-3.354-0.018-6.695-0.031-10.049-0.047C19.3,145.795,19.292,147.865,19.283,149.943z"/>
		</g>
		<g>
			<path fill="#1CA7E5" d="M125.526,119.658c1.179,0.008,3.525,0.031,4.691,0.037c-0.005,1.086-0.015,3.26-0.02,4.348
				c1.473,0.006,2.942,0.012,4.428,0.033c-0.022,2.029-0.018,4.057-0.027,6.1c4.999,0.023,10.006,0.045,15.02,0.07
				c0.009-2.029,0.02-4.072,0.029-6.102c1.472-0.006,2.942,0.002,4.427,0.008c0.004-1.088,0.003-3.262,0.008-4.348
				c1.178,0.006,3.525,0.004,4.69,0.008c0.011,1.154,0.013,3.461,0.007,4.627c-1.485-0.008-2.969,0.002-4.442,0.006
				c-0.009,1.947-0.019,3.885-0.027,5.834c1.511-0.006,3.037-0.012,4.549-0.006c0.007,1.578,0.012,3.168,0.018,4.746
				c2.028-0.004,4.071,0.006,6.113,0.002c0.003-3.512,0.018-7.039,0.034-10.553c1.525,0.006,3.049,0.014,4.587,0.021
				c-0.044,6.574-0.075,13.137-0.092,19.713c-1.128-0.006-3.354-0.014-4.466-0.021c-0.025,1.949-0.035,3.896-0.044,5.859
				c-1.987-0.01-3.974-0.018-5.964-0.027c-0.009,2-0.019,3.99-0.027,5.992c1.511,0.006,3.022,0.014,4.533,0.033
				c-0.005,1.156-0.002,3.475-0.008,4.629c-1.178-0.006-3.526-0.018-4.692-0.021c0.006-1.102,0.015-3.275,0.02-4.363
				c-1.523-0.018-3.037-0.027-4.545-0.033c0.009-2.082,0.018-4.178,0.027-6.258c-8.219-0.037-16.45-0.076-24.684-0.111
				c-0.011,2.078-0.02,4.174-0.028,6.254c-1.539-0.006-3.063-0.014-4.601-0.02c-0.006,1.113-0.015,3.34-0.021,4.451
				c-1.167-0.006-3.513-0.014-4.692-0.021c0.006-1.152,0.029-3.443,0.033-4.6c1.525,0.008,3.05,0.004,4.587,0.01
				c0.009-2.027,0.02-4.07,0.028-6.098c-2.002-0.01-3.988-0.018-5.978-0.027c0.01-1.963,0.019-3.912,0.026-5.873
				c-1.113,0.01-3.34-0.002-4.453-0.006c0.029-6.564,0.06-13.141,0.09-19.715c1.523,0.008,3.048,0.014,4.573,0.021
				c-0.016,3.527-0.032,7.053-0.049,10.578c2.056-0.002,4.11-0.006,6.166-0.012c-0.021-1.168-0.037-3.512-0.058-4.68
				c1.538-0.006,3.062,0.002,4.6-0.004c0.008-1.938,0.017-3.871,0.039-5.809c-1.486-0.018-2.969-0.039-4.44-0.045
				C125.511,123.135,125.522,120.814,125.526,119.658z M129.725,134.594c-0.007,1.154-0.016,3.471-0.021,4.627
				c1.181,0.004,3.54,0.016,4.72,0.021c0.005-1.156,0.018-3.473,0.021-4.627C132.867,134.609,131.302,134.602,129.725,134.594z
				 M149.729,134.686c-0.006,1.154-0.029,3.471-0.033,4.627c1.181,0.006,3.538,0.014,4.72,0.021
				c0.005-1.154,0.016-3.473,0.021-4.625C152.859,134.699,151.294,134.693,149.729,134.686z"/>
		</g>
		<g>
			<path fill="#1CA7E5" d="M93.295,180.111c0.008-1.674,0.015-3.354,0.033-5.023c5.691,0.027,11.379,0.051,17.067,0.078
				c-0.008,1.666-0.016,3.352-0.01,5.02c4.158,0.021,8.326,0.041,12.485,0.059c-0.004,0.949-0.014,2.84-0.018,3.785
				c0.98,0.004,2.932,0.012,3.913,0.018c-0.021,4.205-0.04,8.414-0.059,12.619c-4.193-0.021-8.385-0.041-12.568-0.059
				c-0.019,1.678-0.016,3.363-0.024,5.043c1.624,0.01,3.259,0.016,4.883,0.025c-0.003,0.957-0.013,2.873-0.017,3.834
				c2.535,0.01,5.069,0.021,7.616,0.043c-0.005,0.924-0.014,2.771-0.017,3.689c-2.533-0.02-5.068-0.033-7.604-0.045
				c0.003-0.863,0.013-2.605,0.016-3.48c-2.886-0.012-5.77-0.027-8.656-0.041c-0.001-1.762,0.006-3.537,0.024-5.301
				c-0.992-0.004-2.988-0.027-3.982-0.031c-0.019,1.67-0.026,3.354-0.034,5.02c-3.087-0.012-6.169-0.027-9.251-0.043
				c0.007-1.666,0.015-3.35,0.022-5.02c-1.333-0.006-2.665-0.012-3.995-0.006c-0.008,1.764-0.016,3.539-0.024,5.303
				c-2.886-0.016-5.759-0.027-8.646-0.039c-0.003,0.875-0.024,2.617-0.027,3.49c-2.535-0.012-5.069-0.033-7.592-0.033
				c-0.008-0.922,0-2.768,0.005-3.691c2.534,0.002,5.08,0.012,7.616,0.023c0.004-0.961,0.014-2.875,0.018-3.834
				c1.624,0.01,3.26,0.016,4.883,0.025c0.008-1.682,0.016-3.365,0.023-5.047c-4.194-0.02-8.376-0.039-12.57-0.059
				c0.02-4.201,0.039-8.408,0.058-12.617c1.297-0.002,2.605,0.004,3.913,0.018c0.004-0.941,0.014-2.836,0.018-3.781
				C84.966,180.07,89.125,180.09,93.295,180.111z M89.557,187.568c-0.017,1.332-0.022,2.65-0.028,3.982
				c2.532,0.012,5.08,0.025,7.628,0.037c0.006-1.332,0.012-2.664,0.019-3.986C94.626,187.592,92.091,187.58,89.557,187.568z
				 M106.437,187.635c-0.004,1.004-0.024,3.002-0.028,3.996c2.532,0.012,5.079,0.023,7.616,0.045c0.015-1.004,0.023-3,0.028-3.994
				C111.519,187.668,108.971,187.656,106.437,187.635z"/>
		</g>
	</g>
</g>
</svg>
