<?xml version="1.0" encoding="utf-8"?>
<!-- Generator: Adobe Illustrator 16.0.0, SVG Export Plug-In . SVG Version: 6.00 Build 0)  -->
<!DOCTYPE svg PUBLIC "-//W3C//DTD SVG 1.1//EN" "http://www.w3.org/Graphics/SVG/1.1/DTD/svg11.dtd">
<svg version="1.1" xmlns="http://www.w3.org/2000/svg" xmlns:xlink="http://www.w3.org/1999/xlink" x="0px" y="0px"
	 width="223.104px" height="190.629px" viewBox="0 0 223.104 190.629" enable-background="new 0 0 223.104 190.629"
	 xml:space="preserve">
<g id="Layer_1">
	<g>
		<path fill="#C6C6C6" d="M169.267,49.217c-11.678,0-21.156,9.477-21.156,21.158c0,2.489,0.517,4.829,1.293,7.052H14.112
			c-3.893,0-7.053,3.158-7.053,7.051c0,3.896,3.16,7.053,7.053,7.053h155.154c11.683,0,21.16-9.476,21.16-21.155
			C190.427,58.693,180.948,49.217,169.267,49.217z"/>
		<path fill="#C6C6C6" d="M14.112,63.321h84.632c11.681,0,21.154-9.477,21.154-21.155c0-11.683-9.475-21.159-21.154-21.159
			c-11.683,0-21.159,9.477-21.159,21.159c0,2.487,0.514,4.829,1.296,7.051H14.112c-3.893,0-7.053,3.159-7.053,7.054
			C7.06,60.161,10.22,63.321,14.112,63.321z"/>
		<path fill="#C6C6C6" d="M126.952,105.638c-0.414,0-0.808,0.092-1.231,0.127c-0.271-0.017-0.502-0.127-0.779-0.127H16.134
			c-5.018,0-9.074,3.157-9.074,7.053s4.058,7.054,9.074,7.054h90.955c-0.779,2.221-1.293,4.57-1.293,7.051
			c0,11.682,9.476,21.158,21.156,21.158c11.682,0,21.157-9.478,21.157-21.158C148.11,115.116,138.634,105.638,126.952,105.638z"/>
	</g>
	<g>
		<polygon fill="#FF7567" points="97.149,39.991 94.227,39.991 94.227,37.145 85.728,37.145 85.728,34.3 82.842,34.3 82.842,45.71 
			97.149,45.71 		"/>
		<polygon fill="#C106B5" points="79.951,48.523 79.951,45.71 82.842,45.71 82.842,34.3 82.842,28.606 79.951,28.606 79.951,31.417 
			79.951,40.006 77.092,40.006 77.092,42.851 74.187,42.851 74.187,40.006 71.328,40.006 71.328,28.424 74.14,28.424 74.14,25.608 
			68.513,25.608 68.513,28.558 65.656,28.558 65.656,31.417 62.845,31.417 62.845,34.3 59.983,34.3 59.983,45.71 62.753,45.71 
			62.753,51.293 65.701,51.293 65.701,48.544 		"/>
		<rect x="77.164" y="31.417" fill="#0F0BA1" width="2.787" height="5.637"/>
		<rect x="77.164" y="25.707" fill="#C106B5" width="2.787" height="2.83"/>
		<polygon fill="#FFFFFF" points="77.164,25.707 74.14,25.707 74.14,28.424 71.328,28.424 71.328,40.006 74.187,40.006 
			74.187,42.851 77.092,42.851 77.092,40.006 79.951,40.006 79.951,37.054 77.164,37.054 77.164,31.417 79.951,31.417 
			79.951,28.537 77.139,28.537 		"/>
		<polygon fill="#FFFFFF" points="59.983,37.054 57.172,37.054 57.172,48.595 59.983,48.595 59.983,51.475 62.792,51.475 
			62.792,45.71 59.983,45.71 		"/>
		<path fill="#0F0AA2" d="M54.286,37.054v2.952h-5.731v-5.771h2.864V22.816h2.867v-5.62h2.771c0,0-0.034-5.807,0-5.807
			c0.038,0,2.925,0,2.925,0V0H54.27v2.772h-2.832v2.885h-2.884V2.921h-2.848v2.662H42.82V8.47h-2.884v2.92h-2.812v2.884h2.738
			v-2.699h2.924V8.837h2.92v2.441h2.848V8.615h2.809V5.881h2.887v5.435h-2.812v8.688h-2.884V31.43h-2.921v11.421h-2.737v8.442h5.658
			v2.956h11.428v-5.654h-2.811V37.054H54.286z"/>
		<path fill="#FFFFFF" d="M54.277,54.249v2.837h-2.896v2.816h-2.826v2.976h-5.7v2.775h-5.729v2.974H31.47v2.659h-5.75V68.59h-8.646
			v-2.817h-2.855v-3.005h-2.814v-5.682H8.468v-2.837H5.613v-2.793h2.854v2.378h2.977v2.977h5.63v3.214h8.608v-2.857h2.854
			c0,0-0.078-28.635,0-28.635c0.08,0,2.855,0,2.855,0v-8.566h2.816v-8.608h2.917v2.916h2.738v-2.699h2.924V8.837h2.92v2.441h2.848
			V8.615h2.809V5.881h2.887v5.435h-2.812v8.688h-2.884V31.43h-2.921v11.421h-2.737v8.442h5.658v2.956H54.277z"/>
		<rect x="31.395" y="14.268" fill="#0F0BA1" width="2.813" height="5.698"/>
		<polygon fill="#FF7567" points="25.72,68.59 22.784,68.59 22.784,71.286 14.225,71.286 14.225,79.979 17.086,79.979 
			17.086,82.864 19.973,82.864 19.973,80.003 22.784,80.003 22.784,77.166 25.72,77.166 25.72,74.281 28.532,74.281 28.532,71.47 
			25.744,71.47 		"/>
		<rect x="0" y="45.715" fill="#0F0AA2" width="2.763" height="2.932"/>
		<polygon fill="#0F0AA2" points="2.763,51.446 2.763,48.646 5.613,48.646 5.613,45.715 14.11,45.715 14.11,42.868 22.738,42.868 
			22.738,39.978 28.5,39.978 28.5,57.167 25.683,57.167 25.683,60.024 17.073,60.024 17.073,56.811 11.444,56.811 11.444,53.834 
			8.468,53.834 8.468,51.456 		"/>
	</g>
	<g>
		<polygon fill="#FF7567" points="223.104,136.232 219.395,136.232 219.395,132.622 208.612,132.622 208.612,129.012 
			204.952,129.012 204.952,143.486 223.104,143.486 		"/>
		<polygon fill="#005012" points="201.282,147.058 201.282,143.486 204.952,143.486 204.952,129.012 204.952,121.786 
			201.282,121.786 201.282,125.356 201.282,136.25 197.654,136.25 197.654,139.862 193.973,139.862 193.973,136.25 190.345,136.25 
			190.345,121.556 193.912,121.556 193.912,117.987 186.774,117.987 186.774,121.728 183.147,121.728 183.147,125.356 
			179.577,125.356 179.577,129.012 175.95,129.012 175.95,143.486 179.464,143.486 179.464,150.569 183.206,150.569 
			183.206,147.081 		"/>
		<rect x="197.751" y="125.356" width="3.531" height="7.146"/>
		<rect x="197.751" y="118.11" fill="#005012" width="3.531" height="3.588"/>
		<polygon fill="#FFFFFF" points="197.751,118.11 193.912,118.11 193.912,121.556 190.345,121.556 190.345,136.25 193.973,136.25 
			193.973,139.862 197.654,139.862 197.654,136.25 201.282,136.25 201.282,132.502 197.751,132.502 197.751,125.356 
			201.282,125.356 201.282,121.698 197.718,121.698 		"/>
		<polygon fill="#FFFFFF" points="175.95,132.502 172.38,132.502 172.38,147.145 175.95,147.145 175.95,150.805 179.513,150.805 
			179.513,143.486 175.95,143.486 		"/>
		<path d="M168.725,132.502v3.748h-7.273v-7.319h3.636v-14.488h3.639v-7.131h3.514c0,0-0.046-7.364,0-7.364c0.051,0,3.713,0,3.713,0
			V85.493h-7.248v3.52h-3.597v3.658h-3.655v-3.472h-3.613v3.38h-3.662v3.656h-3.657v3.711h-3.565v3.657h3.472v-3.425h3.706v-3.473
			h3.708v3.098h3.614v-3.379h3.564v-3.472h3.654v6.897h-3.564v11.021h-3.654v14.502h-3.708v14.489h-3.474v10.707h7.182v3.75h14.494
			v-7.175h-3.565V132.5h-3.658V132.502z"/>
		<path fill="#FFFFFF" d="M168.709,154.319v3.605h-3.671v3.568h-3.587v3.774h-7.235v3.524h-7.265v3.774h-7.178v3.371h-7.297v-3.423
			h-10.971v-3.572h-3.623v-3.814h-3.57v-7.205h-3.724v-3.604h-3.621v-3.536h3.621v3.014h3.771v3.776h7.146v4.074h10.92v-3.624h3.623
			c0,0-0.1-36.329,0-36.329c0.102,0,3.623,0,3.623,0v-10.87h3.574v-10.92h3.704v3.7h3.472v-3.425h3.706v-3.473h3.708v3.098h3.614
			v-3.379h3.564v-3.472h3.654v6.897h-3.564v11.021h-3.654v14.502h-3.708v14.489h-3.474v10.707h7.182v3.75L168.709,154.319
			L168.709,154.319z"/>
		<rect x="139.678" y="103.598" width="3.569" height="7.227"/>
		<polygon fill="#FF7567" points="132.478,172.517 128.753,172.517 128.753,175.939 117.896,175.939 117.896,186.967 
			121.526,186.967 121.526,190.629 125.186,190.629 125.186,186.999 128.753,186.999 128.753,183.398 132.478,183.398 
			132.478,179.739 136.044,179.739 136.044,176.17 132.508,176.17 		"/>
		<rect x="99.846" y="143.495" width="3.508" height="3.721"/>
		<polygon points="103.354,150.766 103.354,147.215 106.969,147.215 106.969,143.495 117.747,143.495 117.747,139.883 
			128.693,139.883 128.693,136.215 136.009,136.215 136.009,158.023 132.427,158.023 132.427,161.647 121.507,161.647 
			121.507,157.573 114.36,157.573 114.36,153.795 110.59,153.795 110.59,150.782 		"/>
	</g>
</g>
<g id="Layer_2">
	<g>
		<g>
			<polygon fill="#FF7567" points="97.128,24.31 94.206,24.31 94.206,21.464 85.707,21.464 85.707,18.619 82.821,18.619 
				82.821,30.029 97.128,30.029 			"/>
			<polygon fill="#C106B5" points="79.93,32.842 79.93,30.029 82.821,30.029 82.821,18.619 82.821,12.925 79.93,12.925 
				79.93,15.736 79.93,24.325 77.071,24.325 77.071,27.17 74.166,27.17 74.166,24.325 71.307,24.325 71.307,12.743 74.119,12.743 
				74.119,9.927 68.492,9.927 68.492,12.877 65.635,12.877 65.635,15.736 62.824,15.736 62.824,18.619 59.962,18.619 59.962,30.029 
				62.732,30.029 62.732,35.612 65.68,35.612 65.68,32.863 			"/>
			<rect x="77.143" y="15.736" fill="#0F0BA1" width="2.787" height="5.637"/>
			<rect x="77.143" y="10.026" fill="#C106B5" width="2.787" height="2.83"/>
			<polygon fill="#FFFFFF" points="77.143,10.026 74.119,10.026 74.119,12.743 71.307,12.743 71.307,24.325 74.166,24.325 
				74.166,27.17 77.071,27.17 77.071,24.325 79.93,24.325 79.93,21.373 77.143,21.373 77.143,15.736 79.93,15.736 79.93,12.856 
				77.118,12.856 			"/>
			<polygon fill="#FFFFFF" points="59.962,21.373 57.151,21.373 57.151,32.914 59.962,32.914 59.962,35.794 62.771,35.794 
				62.771,30.029 59.962,30.029 			"/>
			<path fill="#0F0AA2" d="M45.612,27.17h-2.737v8.442h5.658v2.956h11.428v-5.654H57.15V21.373h-2.885v2.952h-5.731"/>
			<path fill="#FFFFFF" d="M45.612,27.17h-2.737v8.442h5.658v2.956h5.723v2.837H51.36v2.816h-2.826v2.976h-5.7v2.775h-5.729v2.974
				h-5.656v2.659h-5.75v-2.696h-8.646v-2.817h-2.855v-3.005h-2.814v-5.682H8.447v-2.837H5.592v-2.793h2.854v2.378h2.977v2.977h5.63
				v3.214h8.608v-2.857h2.854"/>
			<polygon fill="#FF7567" points="25.699,52.909 22.763,52.909 22.763,55.605 14.204,55.605 14.204,64.298 17.065,64.298 
				17.065,67.183 19.952,67.183 19.952,64.322 22.763,64.322 22.763,61.485 25.699,61.485 25.699,58.6 28.511,58.6 28.511,55.789 
				25.723,55.789 			"/>
			<rect x="-0.021" y="30.034" fill="#0F0AA2" width="2.763" height="2.932"/>
			<polygon fill="#0F0AA2" points="2.742,35.765 2.742,32.965 5.592,32.965 5.592,30.034 14.089,30.034 14.089,27.187 
				22.717,27.187 22.717,24.297 28.479,24.297 28.479,41.486 25.662,41.486 25.662,44.343 17.052,44.343 17.052,41.13 11.423,41.13 
				11.423,38.153 8.447,38.153 8.447,35.775 			"/>
		</g>
		<g>
			<path fill="#0F0AA2" d="M28.48,41.487v5.771h-2.864v11.419h-2.867v5.62h-2.771c0,0,0.034,5.807,0,5.807c-0.038,0-2.925,0-2.925,0
				v11.389h5.713v-2.772h2.832v-2.885h2.884v2.736h2.848V75.91h2.887v-2.887h2.884v-2.92h2.812v-2.884h-2.738v2.699h-2.924v2.738
				h-2.92v-2.441h-2.848v2.663h-2.809v2.734h-2.887v-5.435h2.812v-8.688h2.884V50.062h2.921V38.642"/>
			<path fill="#0F0AA2" d="M48.5,24.325c0,0,0.078,28.635,0,28.635c-0.08,0-2.855,0-2.855,0v8.566h-2.816v8.608h-2.917v-2.916
				h-2.738v2.699h-2.924v2.739h-2.92v-2.441h-2.848v2.663h-2.809v2.734h-2.887v-5.435h2.812v-8.688h2.884V50.062h2.921V38.642
				l-2.888,2.845l-0.035-17.19l6.508,0.028h4.924v-2.952h2.916h4.16h1.547v2.952"/>
			<rect x="42.827" y="61.527" fill="#0F0BA1" width="2.813" height="5.698"/>
		</g>
		<g>
			<path fill="#0F0AA2" d="M45.612,27.17"/>
			<path fill="#0F0AA2" d="M48.534,24.325"/>
			<path fill="#FFFFFF" d="M45.612,27.17"/>
			<path fill="#FFFFFF" d="M28.514,41.487"/>
		</g>
	</g>
	<g>
		<polygon fill="#FF7567" points="221.369,116.147 217.635,116.147 217.635,112.51 206.775,112.51 206.775,108.874 203.086,108.874 
			203.086,123.456 221.369,123.456 		"/>
		<polygon fill="#005012" points="199.393,127.049 199.393,123.456 203.086,123.456 203.086,108.874 203.086,101.598 
			199.393,101.598 199.393,105.19 199.393,116.167 195.739,116.167 195.739,119.801 192.026,119.801 192.026,116.167 
			188.373,116.167 188.373,101.365 191.966,101.365 191.966,97.766 184.775,97.766 184.775,101.537 181.123,101.537 181.123,105.19 
			177.531,105.19 177.531,108.874 173.874,108.874 173.874,123.456 177.414,123.456 177.414,130.59 181.182,130.59 181.182,127.077 
					"/>
		<rect x="195.83" y="105.19" width="3.562" height="7.203"/>
		<rect x="195.83" y="97.893" fill="#005012" width="3.562" height="3.617"/>
		<polygon fill="#FFFFFF" points="195.83,97.893 191.966,97.893 191.966,101.365 188.373,101.365 188.373,116.167 192.026,116.167 
			192.026,119.801 195.739,119.801 195.739,116.167 199.393,116.167 199.393,112.393 195.83,112.393 195.83,105.19 199.393,105.19 
			199.393,101.51 195.798,101.51 		"/>
		<polygon fill="#FFFFFF" points="173.874,112.393 170.282,112.393 170.282,127.143 173.874,127.143 173.874,130.823 
			177.464,130.823 177.464,123.456 173.874,123.456 		"/>
		<path d="M155.536,119.801h-3.498v10.789h7.23v3.777h14.604v-7.225h-3.591v-14.75h-3.688v3.773h-7.324"/>
		<path fill="#FFFFFF" d="M155.536,119.801h-3.498v10.789h7.23v3.777h7.313v3.625h-3.7v3.599h-3.612v3.804h-7.284v3.546h-7.32v3.8
			h-7.229v3.398h-7.348v-3.445H119.04v-3.6h-3.649v-3.84h-3.596v-7.262h-3.753v-3.625h-3.649v-3.569h3.648v3.038h3.804v3.805h7.194
			v4.107h11.001v-3.65h3.646"/>
		<polygon fill="#FF7567" points="130.089,152.694 126.337,152.694 126.337,156.139 115.399,156.139 115.399,167.249 
			119.055,167.249 119.055,170.936 122.744,170.936 122.744,167.28 126.337,167.28 126.337,163.655 130.089,163.655 
			130.089,159.967 133.683,159.967 133.683,156.375 130.12,156.375 		"/>
		<polygon points="100.751,130.786 100.751,127.208 104.393,127.208 104.393,123.461 115.251,123.461 115.251,119.824 
			126.278,119.824 126.278,116.13 133.642,116.13 133.642,138.096 130.041,138.096 130.041,141.748 119.039,141.748 
			119.039,137.641 111.845,137.641 111.845,133.836 108.042,133.836 108.042,130.798 		"/>
		<g>
			<path d="M133.643,138.098v7.375h-3.66v14.592h-3.664v7.182h-3.542c0,0,0.044,7.422,0,7.422c-0.048,0-3.737,0-3.737,0v14.555
				h7.301v-3.543h3.619v-3.688h3.686v3.496h3.639v-3.4h3.689v-3.689h3.685v-3.732h3.593v-3.686h-3.499v3.449h-3.736v3.5h-3.731
				v-3.119h-3.639v3.402h-3.59v3.494h-3.688v-6.945h3.593v-11.104h3.686v-14.602h3.732v-14.596"/>
			<path d="M159.227,116.167c0,0,0.1,36.592,0,36.592c-0.103,0-3.649,0-3.649,0v10.947h-3.599v11.002h-3.729v-3.727h-3.499v3.447
				h-3.736v3.502h-3.731v-3.119h-3.639v3.402h-3.59v3.494h-3.688v-6.945h3.593v-11.104h3.686v-14.602h3.732v-14.596l-3.69,3.637
				l-0.045-21.968l8.316,0.036h6.292v-3.773h3.727h5.316h1.977v3.773"/>
			<rect x="151.977" y="163.708" width="3.596" height="7.281"/>
		</g>
		<g>
			<path fill="#0F0AA2" d="M155.536,119.801"/>
			<path fill="#0F0AA2" d="M159.27,116.167"/>
			<path fill="#FFFFFF" d="M155.536,119.801"/>
			<path fill="#FFFFFF" d="M133.687,138.098"/>
		</g>
	</g>
</g>
</svg>
